<svg width="160" height="220" viewBox="0 0 160 220" fill="none" xmlns="http://www.w3.org/2000/svg">
<path d="M104.4 210C104.4 215.27 93.66 219.55 80.42 219.55C67.18 219.55 56.44 215.28 56.44 210C56.44 204.72 67.18 200.45 80.42 200.45C93.66 200.45 104.4 204.72 104.4 210Z" fill="#CC8B49"/>
<path d="M86.98 203.44C86.98 207.06 84.05 210 80.42 210C76.8 210 73.86 207.06 73.86 203.44V163.22C73.86 159.6 76.8 156.66 80.42 156.66C84.04 156.66 86.98 159.6 86.98 163.22V203.44Z" fill="#996837"/>
<path d="M80.42 156.67C76.8 156.67 73.86 159.61 73.86 163.23V169.91C76 170.42 78.19 170.68 80.42 170.68C82.65 170.68 84.84 170.41 86.98 169.9V163.23C86.98 159.61 84.05 156.67 80.42 156.67Z" fill="#664624"/>
<path d="M113.84 109.61C113.84 139.22 98.88 163.22 80.42 163.22C61.96 163.22 47 139.22 47 109.61C47 80 61.96 56 80.42 56C98.88 56 113.84 80 113.84 109.61Z" fill="#F27F82"/>
<path d="M59.05 68.3999C51.69 78.2299 47 93.0499 47 109.62C47 139.23 61.96 163.23 80.42 163.23C86.74 163.23 92.65 160.41 97.69 155.52C104.82 142.88 103.83 122.02 93.85 102.12C85.17 84.8199 71.85 72.5199 59.05 68.3999Z" fill="#F5999B"/>
</svg>
