<svg width="160" height="221" viewBox="0 0 160 221" fill="none" xmlns="http://www.w3.org/2000/svg">
<path d="M103.51 210.64C103.51 215.91 92.77 220.19 79.53 220.19C66.29 220.19 55.55 215.92 55.55 210.64C55.55 205.36 66.29 201.09 79.53 201.09C92.77 201.09 103.51 205.36 103.51 210.64Z" fill="#CC8B49"/>
<path d="M86.09 204.08C86.09 207.7 83.16 210.64 79.53 210.64C75.91 210.64 72.97 207.7 72.97 204.08V163.86C72.97 160.24 75.91 157.3 79.53 157.3C83.15 157.3 86.09 160.24 86.09 163.86V204.08Z" fill="#996837"/>
<path d="M79.53 157.31C75.91 157.31 72.97 160.25 72.97 163.87V170.55C75.11 171.06 77.3 171.32 79.53 171.32C81.76 171.32 83.95 171.05 86.09 170.54V163.87C86.09 160.25 83.16 157.31 79.53 157.31Z" fill="#664624"/>
<path d="M124.06 92.43C124.06 131.88 104.12 163.86 79.53 163.86C54.94 163.86 35 131.88 35 92.43C35 52.98 54.94 21 79.53 21C104.12 21 124.06 52.98 124.06 92.43Z" fill="#F27F82"/>
<path d="M51.06 37.5098C41.25 50.6098 35 70.3497 35 92.4297C35 131.88 54.94 163.86 79.53 163.86C87.95 163.86 95.83 160.11 102.54 153.59C112.04 136.74 110.72 108.95 97.42 82.4398C85.86 59.3798 68.1 42.9998 51.06 37.5098Z" fill="#F5999B"/>
<path d="M44.07 135.64C52.2 152.79 65.06 163.86 79.53 163.86C104.12 163.86 124.06 131.88 124.06 92.4299C124.06 84.5399 123.26 76.9499 121.79 69.8599C104.87 71.3599 85.14 81.0899 68.54 97.6999C56.76 109.48 48.45 122.84 44.07 135.64Z" fill="#FCE5E6"/>
</svg>
