<svg width="160" height="220" viewBox="0 0 160 220" fill="none" xmlns="http://www.w3.org/2000/svg">
<path d="M80.11 219.74C93.3538 219.74 104.09 215.465 104.09 210.19C104.09 204.916 93.3538 200.64 80.11 200.64C66.8662 200.64 56.13 204.916 56.13 210.19C56.13 215.465 66.8662 219.74 80.11 219.74Z" fill="#CC8B49"/>
<path d="M86.67 204.75C86.67 208.37 83.74 211.31 80.11 211.31C76.49 211.31 73.55 208.37 73.55 204.75V112.77C73.55 109.15 76.49 106.21 80.11 106.21C83.73 106.21 86.67 109.15 86.67 112.77V204.75Z" fill="#996837"/>
<path d="M60.58 151.15C47.01 151.15 36 140.15 36 126.57C36 113 47 102 60.58 102H99.65C113.22 102 124.22 113 124.22 126.57C124.22 140.14 113.22 151.15 99.65 151.15H60.58Z" fill="#D0DDFF"/>
<path d="M40.3 112.7C37.59 116.65 36 121.43 36 126.58C36 140.15 47 151.16 60.58 151.16H99.65C105.25 151.16 110.4 149.29 114.53 146.14C113.94 136.95 108.19 128.48 99.06 124.86L62.74 110.46C55.05 107.41 46.75 108.52 40.3 112.7Z" fill="#8AABFF"/>
<path d="M108.45 117.19L71.38 129.53C61.89 132.69 55.61 141.08 54.69 150.44C56.58 150.91 58.55 151.16 60.59 151.16H99.66C113.23 151.16 124.23 140.16 124.23 126.58C124.23 123.05 123.48 119.7 122.14 116.66C117.77 115.57 113.05 115.66 108.45 117.19Z" fill="#6E89CC"/>
</svg>
