<svg width="160" height="220" viewBox="0 0 160 220" fill="none" xmlns="http://www.w3.org/2000/svg">
<path d="M106.35 210.25C106.35 215.52 95.61 219.8 82.37 219.8C69.13 219.8 58.39 215.52 58.39 210.25C58.39 204.98 69.13 200.7 82.37 200.7C95.61 200.7 106.35 204.97 106.35 210.25Z" fill="#CC8B49"/>
<path d="M88.9301 204.81C88.9301 208.43 85.9901 211.37 82.3701 211.37C78.7501 211.37 75.8101 208.43 75.8101 204.81V87.1899C75.8101 83.5699 78.7501 80.6299 82.3701 80.6299C85.9901 80.6299 88.9301 83.5699 88.9301 87.1899V204.81Z" fill="#996837"/>
<path d="M120.47 113.23C120.47 135.45 102.46 153.46 80.24 153.46C58.02 153.46 40.01 135.45 40.01 113.23C40.01 91.01 58.02 73 80.24 73C102.46 73 120.47 91.01 120.47 113.23Z" fill="#D0DDFF"/>
<path d="M67.22 142.48C67.22 145.64 67.59 148.71 68.28 151.66C72.06 152.83 76.07 153.46 80.23 153.46C102.45 153.46 120.46 135.45 120.46 113.23C120.46 110.07 120.09 107 119.4 104.06C115.62 102.89 111.61 102.25 107.45 102.25C85.23 102.25 67.22 120.26 67.22 142.48Z" fill="#8AABFF"/>
<path d="M49.92 95.7402C47.83 95.7402 45.78 95.9002 43.78 96.2102C41.36 101.38 40 107.15 40 113.23C40 135.45 58.01 153.46 80.23 153.46C82.32 153.46 84.37 153.3 86.37 153C88.79 147.83 90.15 142.06 90.15 135.98C90.15 113.76 72.14 95.7502 49.92 95.7502V95.7402Z" fill="#6E89CC"/>
</svg>
