<svg width="160" height="220" viewBox="0 0 160 220" fill="none" xmlns="http://www.w3.org/2000/svg">
<path d="M103.63 210.02C103.63 215.29 92.89 219.57 79.65 219.57C66.41 219.57 55.67 215.29 55.67 210.02C55.67 204.75 66.41 200.47 79.65 200.47C92.89 200.47 103.63 204.75 103.63 210.02Z" fill="#CC8B49"/>
<path d="M86.2101 202.458C86.2101 206.078 83.2801 209.018 79.6501 209.018C76.0301 209.018 73.0901 206.078 73.0901 202.458V55.1284C73.0901 51.5084 76.0301 48.5684 79.6501 48.5684C83.2701 48.5684 86.2101 51.5084 86.2101 55.1284V202.458Z" fill="#996837"/>
<path d="M73.0901 165.158C75.2101 166.788 77.3901 168.348 79.6501 169.788C81.9101 168.338 84.0901 166.798 86.2101 165.168V92.5684C81.8901 91.6084 77.5101 90.9684 73.0901 90.6484V165.168V165.158Z" fill="#664624"/>
<path d="M46 100.428C46 126.238 59.41 148.908 79.65 161.858C99.89 148.908 113.3 126.238 113.3 100.428C113.3 74.6182 99.89 51.948 79.65 38.998C59.41 51.948 46 74.6182 46 100.428Z" fill="#D0DDFF"/>
<path d="M103.54 63.9883C80.8499 67.5983 60.2299 81.8384 49.3999 104.058C48.3799 106.138 47.4799 108.258 46.6799 110.378C49.6299 131.998 62.0599 150.598 79.6499 161.858C99.8899 148.908 113.3 126.238 113.3 100.428C113.3 87.1485 109.74 74.7083 103.54 63.9883Z" fill="#8AABFF"/>
</svg>
