<svg width="160" height="221" viewBox="0 0 160 221" fill="none" xmlns="http://www.w3.org/2000/svg">
<path d="M104.13 210.81C104.13 216.08 93.3899 220.36 80.1499 220.36C66.9099 220.36 56.1699 216.09 56.1699 210.81C56.1699 205.53 66.9099 201.26 80.1499 201.26C93.3899 201.26 104.13 205.53 104.13 210.81Z" fill="#CC8B49"/>
<path d="M84.0001 206.77C84.0001 209.104 82.2135 211 80.0001 211C77.7928 211 76.0001 209.104 76.0001 206.77V170.23C76.0001 167.896 77.7928 166 80.0001 166C82.2074 166 84.0001 167.896 84.0001 170.23V206.77Z" fill="#677900"/>
<path d="M54.9181 202.469C56.0554 202.044 57.3046 202.569 57.7078 203.647C58.11 204.723 57.5129 205.942 56.3756 206.367L38.5746 213.024C37.4373 213.449 36.1871 212.921 35.7849 211.846C35.3828 210.77 35.9799 209.552 37.1172 209.126L54.9181 202.469Z" fill="#677900"/>
<path d="M134.489 212.257C135.649 212.615 136.317 213.794 135.977 214.894C135.639 215.991 134.421 216.591 133.261 216.233L115.102 210.625C113.942 210.267 113.275 209.085 113.614 207.988C113.953 206.891 115.17 206.291 116.33 206.649L134.489 212.257Z" fill="#677900"/>
<path d="M73.9062 124.562C74.6562 123.906 75.7812 123.906 76.5312 124.562C79.0625 127 81.5 129.625 83.75 132.438C84.7812 131.125 86 129.625 87.2188 128.406C87.9688 127.75 89.0938 127.75 89.8438 128.406C93.125 131.5 95.8438 135.625 97.8125 139.469C99.6875 143.312 101 147.25 101 149.969C101 161.969 91.625 172 80 172C68.1875 172 59 161.969 59 149.969C59 146.406 60.5938 142 63.2188 137.594C65.8438 133.188 69.5 128.594 73.9062 124.562ZM80.0938 163C82.5312 163 84.5938 162.344 86.5625 161.031C90.5 158.312 91.5312 152.781 89.1875 148.469C88.8125 147.625 87.6875 147.531 87.125 148.281L84.6875 151C84.125 151.75 83 151.75 82.4375 151C80.8438 149.031 78.125 145.469 76.5312 143.5C75.9688 142.75 74.8438 142.75 74.1875 143.5C71 147.438 69.4062 149.969 69.4062 152.781C69.5 159.25 74.1875 163 80.0938 163Z" fill="#B84B55"/>
<ellipse cx="112" cy="202.5" rx="4" ry="1.5" fill="#ABC900"/>
<ellipse cx="47" cy="218.5" rx="4" ry="1.5" fill="#677900"/>
</svg>
