<svg width="160" height="221" viewBox="0 0 160 221" fill="none" xmlns="http://www.w3.org/2000/svg">
<path d="M104.31 210.83C104.31 216.1 93.5701 220.38 80.3301 220.38C67.0901 220.38 56.3501 216.11 56.3501 210.83C56.3501 205.55 67.0901 201.28 80.3301 201.28C93.5701 201.28 104.31 205.55 104.31 210.83Z" fill="#CC8B49"/>
<path d="M86.89 204.27C86.89 207.89 83.96 210.83 80.33 210.83C76.71 210.83 73.77 207.89 73.77 204.27V164.05C73.77 160.43 76.71 157.49 80.33 157.49C83.95 157.49 86.89 160.43 86.89 164.05V204.27Z" fill="#996837"/>
<path d="M80.33 157.5C76.71 157.5 73.77 160.44 73.77 164.06V170.74C75.91 171.25 78.1 171.51 80.33 171.51C82.56 171.51 84.75 171.24 86.89 170.73V164.06C86.89 160.44 83.96 157.5 80.33 157.5Z" fill="#664624"/>
<path d="M104.66 125.03C104.66 146.58 93.77 164.06 80.33 164.06C66.89 164.06 56 146.59 56 125.03C56 103.47 66.89 86 80.33 86C93.77 86 104.66 103.47 104.66 125.03Z" fill="#6E89CC"/>
</svg>
