<svg width="160" height="221" viewBox="0 0 160 221" fill="none" xmlns="http://www.w3.org/2000/svg">
<path d="M104.06 210.94C104.06 216.21 93.32 220.49 80.08 220.49C66.84 220.49 56.1 216.22 56.1 210.94C56.1 205.66 66.84 201.39 80.08 201.39C93.32 201.39 104.06 205.66 104.06 210.94Z" fill="#CC8B49"/>
<path d="M86.63 204.38C86.63 208 83.69 210.94 80.07 210.94C76.45 210.94 73.51 208 73.51 204.38V164.16C73.51 160.54 76.45 157.6 80.07 157.6C83.69 157.6 86.63 160.54 86.63 164.16V204.38Z" fill="#996837"/>
<path d="M80.07 172.57C82.3 172.57 84.49 172.39 86.63 172.04V164.17C86.63 160.55 83.69 157.61 80.07 157.61C76.45 157.61 73.51 160.55 73.51 164.17V172.03C75.65 172.37 77.83 172.57 80.07 172.57Z" fill="#664624"/>
<path d="M121.15 125.39C121.15 148.07 102.76 166.46 80.07 166.46C57.39 166.46 39 148.07 39 125.39V60.08C39 37.4 57.39 19 80.07 19C102.76 19 121.15 37.39 121.15 60.08V125.39Z" fill="#ABC900"/>
<path d="M84.93 100.66L67.88 37.6199C66.47 32.4199 64.12 27.7299 61.07 23.6699C47.96 30.5299 39.01 44.2499 39.01 60.0799V125.39C39.01 135.68 42.8 145.08 49.06 152.29C51.37 152.07 53.7 151.67 56.01 151.04C77.91 145.12 90.86 122.56 84.94 100.67L84.93 100.66Z" fill="#89A100"/>
<path d="M83.3299 73.0902L52.3299 130.57C48.9499 136.84 47.37 143.61 47.4 150.26C54.9 160.1 66.7499 166.46 80.0799 166.46C102.77 166.46 121.16 148.07 121.16 125.39V60.0802C121.16 57.1502 120.85 54.2902 120.26 51.5302C105.39 51.2602 90.88 59.1002 83.34 73.1002L83.3299 73.0902Z" fill="#677900"/>
</svg>
