<svg width="160" height="220" viewBox="0 0 160 220" fill="none" xmlns="http://www.w3.org/2000/svg">
<path d="M103.96 209.96C103.96 215.23 93.22 219.51 79.98 219.51C66.74 219.51 56 215.24 56 209.96C56 204.68 66.74 200.41 79.98 200.41C93.22 200.41 103.96 204.68 103.96 209.96Z" fill="#CC8B49"/>
<path d="M86.5399 203.4C86.5399 207.02 83.5999 209.96 79.9799 209.96C76.3599 209.96 73.4199 207.02 73.4199 203.4V163.18C73.4199 159.56 76.3599 156.62 79.9799 156.62C83.5999 156.62 86.5399 159.56 86.5399 163.18V203.4Z" fill="#996837"/>
<path d="M79.9799 171.59C82.2099 171.59 84.3999 171.41 86.5399 171.06V163.19C86.5399 159.57 83.5999 156.63 79.9799 156.63C76.3599 156.63 73.4199 159.57 73.4199 163.19V171.05C75.5599 171.39 77.7399 171.59 79.9799 171.59Z" fill="#664624"/>
<path d="M101.85 143.62C101.85 155.69 92.06 165.48 79.99 165.48C67.92 165.48 58.13 155.69 58.13 143.62V108.86C58.13 96.79 67.92 87 79.99 87C92.06 87 101.85 96.79 101.85 108.86V143.62Z" fill="#ABC900"/>
</svg>
