<svg width="160" height="221" viewBox="0 0 160 221" fill="none" xmlns="http://www.w3.org/2000/svg">
<path d="M79.57 220.36C92.8138 220.36 103.55 216.084 103.55 210.81C103.55 205.535 92.8138 201.26 79.57 201.26C66.3262 201.26 55.59 205.535 55.59 210.81C55.59 216.084 66.3262 220.36 79.57 220.36Z" fill="#CC8B49"/>
<path d="M86.13 205.36C86.13 208.98 83.2 211.92 79.57 211.92C75.95 211.92 73.01 208.98 73.01 205.36V144.52C73.01 140.9 75.95 137.96 79.57 137.96C83.19 137.96 86.13 140.9 86.13 144.52V205.36Z" fill="#996837"/>
<path d="M86.13 163.29V144.51C86.13 140.89 83.2 137.95 79.57 137.95C75.94 137.95 73.01 140.89 73.01 144.51V163.29H86.13Z" fill="#664624"/>
<path d="M91.47 82H67.67C54.0451 82 43 93.0451 43 106.67V130.47C43 144.095 54.0451 155.14 67.67 155.14H91.47C105.095 155.14 116.14 144.095 116.14 130.47V106.67C116.14 93.0451 105.095 82 91.47 82Z" fill="#6E89CC"/>
</svg>
