<svg width="160" height="220" viewBox="0 0 160 220" fill="none" xmlns="http://www.w3.org/2000/svg">
<path d="M80.33 219.88C93.5737 219.88 104.31 215.604 104.31 210.33C104.31 205.056 93.5737 200.78 80.33 200.78C67.0862 200.78 56.35 205.056 56.35 210.33C56.35 215.604 67.0862 219.88 80.33 219.88Z" fill="#CC8B49"/>
<path d="M86.88 204.88C86.88 208.5 83.95 211.44 80.32 211.44C76.7 211.44 73.76 208.5 73.76 204.88V144.04C73.76 140.42 76.7 137.48 80.32 137.48C83.94 137.48 86.88 140.42 86.88 144.04V204.88Z" fill="#996837"/>
<path d="M86.88 162.81V144.03C86.88 140.41 83.95 137.47 80.32 137.47C76.69 137.47 73.76 140.41 73.76 144.03V162.81H86.88Z" fill="#664624"/>
<path d="M101.92 22H58.74C34.0308 22 14 42.0308 14 66.74V109.92C14 134.629 34.0308 154.66 58.74 154.66H101.92C126.629 154.66 146.66 134.629 146.66 109.92V66.74C146.66 42.0308 126.629 22 101.92 22Z" fill="#6E89CC"/>
<path d="M80.13 53.9697C63.74 35.5997 35.61 33.9396 17.17 50.1896C15.13 55.3096 14 60.8897 14 66.7397V109.92C14 134.63 34.03 154.66 58.74 154.66H99.34L105.28 149.37C123.72 132.92 125.33 104.64 108.88 86.1997L80.14 53.9797L80.13 53.9697Z" fill="#8AABFF"/>
<path d="M131.27 82.4799C108.75 72.3099 82.2499 82.3199 72.0799 104.84L54.3099 144.19C52.8599 147.4 51.8299 150.7 51.1799 154.01C53.6399 154.43 56.1699 154.66 58.7499 154.66H101.93C126.64 154.66 146.67 134.63 146.67 109.92V89.4399L131.28 82.4899L131.27 82.4799Z" fill="#D0DDFF"/>
</svg>
