<svg width="29" height="38" viewBox="0 0 29 38" fill="none" xmlns="http://www.w3.org/2000/svg">
<g id="shape">
<path id="Union" d="M17.8458 19.25H23.121C24.4101 19.25 25.0546 17.7891 24.2382 16.8438L21.2734 13.4492H21.9179C23.0351 13.4492 23.6367 12.1602 22.9062 11.3008L20.3281 8.29297H20.7577C21.7031 8.29297 22.1757 7.30469 21.6171 6.66016L15.8163 0.386719C15.3437 -0.128906 14.6132 -0.128906 14.1406 0.386719L8.33977 6.66016C7.78118 7.30469 8.25384 8.29297 9.19915 8.29297H9.62884L7.05071 11.3008C6.36321 12.1602 6.92181 13.4492 8.03899 13.4492H8.68352L5.71868 16.8438C4.90227 17.7891 5.54681 19.293 6.7929 19.293H12.1005V28H17.8458V19.25Z" fill="#80D4CC"/>
<path id="Union_2" d="M17.8423 29H12.104C12.1244 29.3998 12.2337 29.81 12.432 30.1669L14.3102 33.6362C14.4428 33.8571 14.6859 34.0118 14.9731 33.9897C15.2604 34.0118 15.5035 33.8571 15.6139 33.6141L17.5143 30.1669C17.7126 29.81 17.8219 29.3998 17.8423 29Z" fill="#66AAA3"/>
<ellipse id="Ellipse 1" cx="14.5" cy="36.5" rx="14.5" ry="1.5" fill="#CC8B49"/>
</g>
</svg>
