<svg width="126" height="38" viewBox="0 0 126 38" fill="none" xmlns="http://www.w3.org/2000/svg">
<path d="M17.8458 19.25H23.121C24.4101 19.25 25.0546 17.7891 24.2382 16.8438L21.2734 13.4492H21.9179C23.0351 13.4492 23.6367 12.1602 22.9062 11.3008L20.3281 8.29297H20.7577C21.7031 8.29297 22.1757 7.30469 21.6171 6.66016L15.8163 0.386719C15.3437 -0.128906 14.6132 -0.128906 14.1406 0.386719L8.33977 6.66016C7.78118 7.30469 8.25384 8.29297 9.19915 8.29297H9.62884L7.05071 11.3008C6.36321 12.1602 6.92181 13.4492 8.03899 13.4492H8.68352L5.71868 16.8438C4.90227 17.7891 5.54681 19.293 6.7929 19.293H12.1005V28H17.8458V19.25Z" fill="#80D4CC"/>
<path d="M17.8423 29H12.104C12.1244 29.3998 12.2337 29.81 12.432 30.1669L14.3102 33.6362C14.4428 33.8571 14.6859 34.0118 14.9731 33.9897C15.2604 34.0118 15.5035 33.8571 15.6139 33.6141L17.5143 30.1669C17.7126 29.81 17.8219 29.3998 17.8423 29Z" fill="#66AAA3"/>
<ellipse cx="14.5" cy="36.5" rx="14.5" ry="1.5" fill="#CC8B49"/>
<path d="M37.9912 33.5986V31.04H37.8008C37.3857 31.04 37.1514 30.8203 37.1514 30.4443C37.1514 30.0684 37.3857 29.8486 37.8008 29.8486H38.0303V29.2822C38.0303 28.7451 38.3037 28.4473 38.7871 28.4473C39.2754 28.4473 39.5439 28.7451 39.5439 29.2822V29.8486H39.9541C40.3691 29.8486 40.6035 30.0684 40.6035 30.4443C40.6035 30.8203 40.3691 31.04 39.9541 31.04H39.5635V33.3594C39.5635 33.7793 39.6807 33.9355 40.0127 33.9355C40.1494 33.9355 40.2324 33.9111 40.3691 33.9111C40.6133 33.9111 40.7842 34.082 40.7842 34.3555C40.7842 34.5801 40.6816 34.7656 40.4863 34.8975C40.2764 35.0439 39.9688 35.1221 39.5732 35.1221C38.4893 35.1221 37.9912 34.6533 37.9912 33.5986Z" fill="#515151"/>
<path d="M46.9141 34.1895C46.9141 34.7412 46.6357 35.0488 46.1328 35.0488C45.625 35.0488 45.3467 34.7412 45.3467 34.1895V31.9678C45.3467 31.3574 45.0439 31.0059 44.5215 31.0059C43.9697 31.0059 43.6035 31.4404 43.6035 32.1143V34.1895C43.6035 34.7412 43.3203 35.0488 42.8223 35.0488C42.3145 35.0488 42.0361 34.7412 42.0361 34.1895V28.8037C42.0361 28.2471 42.3193 27.9395 42.8223 27.9395C43.3252 27.9395 43.6035 28.2471 43.6035 28.8037V30.6885H43.6816C43.8574 30.1074 44.4775 29.707 45.1953 29.707C46.2793 29.707 46.9141 30.3906 46.9141 31.5576V34.1895Z" fill="#515151"/>
<path d="M48.498 28.4521C48.498 28.0078 48.8545 27.6904 49.3428 27.6904C49.8359 27.6904 50.1875 28.0078 50.1875 28.4521C50.1875 28.9014 49.8359 29.2188 49.3428 29.2188C48.8545 29.2188 48.498 28.9014 48.498 28.4521ZM50.1289 34.1895C50.1289 34.751 49.8408 35.0488 49.3428 35.0488C48.8447 35.0488 48.5615 34.751 48.5615 34.1895V30.6006C48.5615 30.0391 48.8496 29.7412 49.3428 29.7412C49.8408 29.7412 50.1289 30.0391 50.1289 30.6006V34.1895Z" fill="#515151"/>
<path d="M56.6592 34.1943C56.6592 34.751 56.376 35.0488 55.873 35.0488C55.3652 35.0488 55.0869 34.7412 55.0869 34.1895V31.9629C55.0869 31.3623 54.7891 31.0059 54.2764 31.0059C53.7246 31.0059 53.3682 31.4258 53.3682 32.1143V34.1895C53.3682 34.7412 53.0898 35.0488 52.5869 35.0488C52.084 35.0488 51.8008 34.7412 51.8008 34.1895V30.5713C51.8008 30.0537 52.0938 29.7412 52.5674 29.7412C53.0312 29.7412 53.2998 30.0049 53.3242 30.498V30.6885H53.4023C53.5928 30.0928 54.1934 29.707 54.9355 29.707C56.0342 29.707 56.6592 30.376 56.6592 31.5527V34.1943Z" fill="#515151"/>
<path d="M59.8447 34.1895C59.8447 34.7363 59.5762 35.0488 59.0781 35.0488C58.5703 35.0488 58.2822 34.7363 58.2822 34.1895V28.8037C58.2822 28.2471 58.5557 27.9395 59.0635 27.9395C59.5664 27.9395 59.8447 28.2471 59.8447 28.8037V31.6943H59.9326L61.5586 30.0098C61.7734 29.7852 61.959 29.6924 62.1982 29.6924C62.5889 29.6924 62.8721 29.9756 62.8721 30.3662C62.8721 30.5664 62.7939 30.7422 62.6279 30.9082L61.4512 32.0898L62.7598 33.7061C62.9355 33.916 63.0234 34.126 63.0234 34.3311C63.0234 34.7266 62.7109 35.0391 62.3105 35.0391C62.0371 35.0391 61.832 34.9268 61.627 34.6777L60.2402 32.9248L59.8447 33.3057V34.1895Z" fill="#515151"/>
<path d="M70.0049 34.126C69.834 34.6387 69.2822 35.0586 68.4619 35.0586C67.4219 35.0586 66.7578 34.4727 66.7578 33.2568V30.5957C66.7578 30.0293 67.0508 29.7412 67.5488 29.7412C68.042 29.7412 68.3301 30.0293 68.3301 30.5957V32.8613C68.3301 33.5059 68.667 33.7842 69.1357 33.7842C69.6973 33.7842 70.0391 33.4033 70.0391 32.8271V30.5957C70.0391 30.0293 70.3271 29.7412 70.8203 29.7412C71.3184 29.7412 71.6064 30.0293 71.6064 30.5957V34.2188C71.6064 34.7461 71.3037 35.0488 70.8398 35.0488C70.3857 35.0488 70.1074 34.79 70.083 34.2969V34.126H70.0049Z" fill="#515151"/>
<path d="M74.8018 35.9619C74.8018 36.5186 74.5234 36.8213 74.0205 36.8213C73.5127 36.8213 73.2393 36.5186 73.2393 35.9619V30.6006C73.2393 30.0488 73.5127 29.7412 74.0107 29.7412C74.4746 29.7412 74.7529 29.9951 74.792 30.4639V30.6104H74.8701C75.0801 30.0586 75.6367 29.707 76.3594 29.707C77.5605 29.707 78.2686 30.5811 78.2686 32.0752V32.6758C78.2686 34.1748 77.5557 35.0586 76.3496 35.0586C75.6416 35.0586 75.1045 34.7412 74.8799 34.1846H74.8018V35.9619ZM74.8018 32.6709C74.8018 33.3887 75.1729 33.8428 75.7393 33.8428C76.3154 33.8428 76.6523 33.3789 76.6523 32.5879V32.1777C76.6523 31.377 76.3154 30.9229 75.7295 30.9229C75.1533 30.9229 74.8018 31.3672 74.8018 32.1289V32.6709Z" fill="#515151"/>
<path d="M82.5791 33.5986V31.04H82.3887C81.9736 31.04 81.7393 30.8203 81.7393 30.4443C81.7393 30.0684 81.9736 29.8486 82.3887 29.8486H82.6182V29.2822C82.6182 28.7451 82.8916 28.4473 83.375 28.4473C83.8633 28.4473 84.1318 28.7451 84.1318 29.2822V29.8486H84.542C84.957 29.8486 85.1914 30.0684 85.1914 30.4443C85.1914 30.8203 84.957 31.04 84.542 31.04H84.1514V33.3594C84.1514 33.7793 84.2686 33.9355 84.6006 33.9355C84.7373 33.9355 84.8203 33.9111 84.957 33.9111C85.2012 33.9111 85.3721 34.082 85.3721 34.3555C85.3721 34.5801 85.2695 34.7656 85.0742 34.8975C84.8643 35.0439 84.5566 35.1221 84.1611 35.1221C83.0771 35.1221 82.5791 34.6533 82.5791 33.5986Z" fill="#515151"/>
<path d="M88.8213 29.6582C90.3252 29.6582 91.3262 30.5957 91.3262 32.1191V32.627C91.3262 34.2188 90.3252 35.127 88.8213 35.127C87.3125 35.127 86.3115 34.2188 86.3115 32.6318V32.1289C86.3115 30.5957 87.3125 29.6582 88.8213 29.6582ZM88.8213 30.8301C88.2646 30.8301 87.9277 31.3037 87.9277 32.1191V32.6611C87.9277 33.4766 88.2646 33.9551 88.8213 33.9551C89.3828 33.9551 89.7051 33.4766 89.7051 32.6611V32.1191C89.7051 31.3037 89.3828 30.8301 88.8213 30.8301Z" fill="#515151"/>
<path d="M95.8984 34.0625C95.708 34.5459 95.166 34.8779 94.4482 34.8779C93.2812 34.8779 92.5244 34.0088 92.5244 32.4951V32.0947C92.5244 30.5811 93.2812 29.707 94.4434 29.707C95.1904 29.707 95.7324 30.0781 95.9131 30.5811H95.9912V30.4492C96.0254 29.9707 96.3135 29.7217 96.7578 29.7217C97.2559 29.7217 97.5439 30.0244 97.5439 30.5811V34.8486C97.5439 36.2305 96.5527 36.958 94.9658 36.958C94.2529 36.958 93.6865 36.8457 93.3057 36.6357C92.9492 36.4404 92.7344 36.1572 92.7344 35.8203C92.7344 35.4736 92.9785 35.2441 93.3643 35.2441C93.5791 35.2441 93.7207 35.3271 93.8916 35.4297C94.1309 35.5615 94.4287 35.7422 94.9561 35.7422C95.6494 35.7422 95.9766 35.4248 95.9766 34.7217V34.0625H95.8984ZM94.1455 32.5195C94.1455 33.2812 94.5068 33.7598 95.0732 33.7598C95.6543 33.7598 95.9766 33.2617 95.9766 32.5781V32.1094C95.9766 31.416 95.6494 30.9229 95.0635 30.9229C94.4971 30.9229 94.1455 31.3965 94.1455 32.1631V32.5195Z" fill="#515151"/>
<path d="M98.9814 32.6855V32.1094C98.9814 30.6348 99.958 29.6582 101.428 29.6582C102.81 29.6582 103.786 30.625 103.786 31.9189C103.786 32.5146 103.576 32.7295 103.015 32.7295H100.578V32.9199C100.588 33.5352 100.998 33.9502 101.696 33.9502C102.072 33.9502 102.326 33.8672 102.526 33.7207C102.766 33.5693 102.868 33.4766 103.112 33.4766C103.43 33.4766 103.64 33.6816 103.64 34.0137C103.64 34.292 103.469 34.5361 103.171 34.7217C102.814 34.9756 102.243 35.127 101.584 35.127C99.9727 35.127 98.9814 34.209 98.9814 32.6855ZM100.578 31.8311H102.307V31.8164C102.307 31.2207 101.975 30.8301 101.462 30.8301C100.91 30.8301 100.578 31.2305 100.578 31.8164V31.8311Z" fill="#515151"/>
<path d="M105.624 33.5986V31.04H105.434C105.019 31.04 104.784 30.8203 104.784 30.4443C104.784 30.0684 105.019 29.8486 105.434 29.8486H105.663V29.2822C105.663 28.7451 105.937 28.4473 106.42 28.4473C106.908 28.4473 107.177 28.7451 107.177 29.2822V29.8486H107.587C108.002 29.8486 108.236 30.0684 108.236 30.4443C108.236 30.8203 108.002 31.04 107.587 31.04H107.196V33.3594C107.196 33.7793 107.313 33.9355 107.646 33.9355C107.782 33.9355 107.865 33.9111 108.002 33.9111C108.246 33.9111 108.417 34.082 108.417 34.3555C108.417 34.5801 108.314 34.7656 108.119 34.8975C107.909 35.0439 107.602 35.1221 107.206 35.1221C106.122 35.1221 105.624 34.6533 105.624 33.5986Z" fill="#515151"/>
<path d="M114.547 34.1895C114.547 34.7412 114.269 35.0488 113.766 35.0488C113.258 35.0488 112.979 34.7412 112.979 34.1895V31.9678C112.979 31.3574 112.677 31.0059 112.154 31.0059C111.603 31.0059 111.236 31.4404 111.236 32.1143V34.1895C111.236 34.7412 110.953 35.0488 110.455 35.0488C109.947 35.0488 109.669 34.7412 109.669 34.1895V28.8037C109.669 28.2471 109.952 27.9395 110.455 27.9395C110.958 27.9395 111.236 28.2471 111.236 28.8037V30.6885H111.314C111.49 30.1074 112.11 29.707 112.828 29.707C113.912 29.707 114.547 30.3906 114.547 31.5576V34.1895Z" fill="#515151"/>
<path d="M115.931 32.6855V32.1094C115.931 30.6348 116.907 29.6582 118.377 29.6582C119.759 29.6582 120.735 30.625 120.735 31.9189C120.735 32.5146 120.525 32.7295 119.964 32.7295H117.527V32.9199C117.537 33.5352 117.947 33.9502 118.646 33.9502C119.021 33.9502 119.275 33.8672 119.476 33.7207C119.715 33.5693 119.817 33.4766 120.062 33.4766C120.379 33.4766 120.589 33.6816 120.589 34.0137C120.589 34.292 120.418 34.5361 120.12 34.7217C119.764 34.9756 119.192 35.127 118.533 35.127C116.922 35.127 115.931 34.209 115.931 32.6855ZM117.527 31.8311H119.256V31.8164C119.256 31.2207 118.924 30.8301 118.411 30.8301C117.859 30.8301 117.527 31.2305 117.527 31.8164V31.8311Z" fill="#515151"/>
<path d="M123.721 34.1895C123.721 34.7363 123.428 35.0488 122.92 35.0488C122.407 35.0488 122.153 34.7363 122.153 34.1895V30.6006C122.153 30.0488 122.422 29.7412 122.925 29.7412C123.379 29.7412 123.638 29.9951 123.672 30.4688V30.542H123.745C123.921 30.0049 124.292 29.707 124.795 29.707C125.01 29.707 125.181 29.7656 125.303 29.8828C125.43 30 125.498 30.1709 125.498 30.3906C125.498 30.6055 125.435 30.7617 125.308 30.8691C125.19 30.9668 125.01 31.0205 124.775 31.0303C124.067 31.0547 123.721 31.4404 123.721 32.1875V34.1895Z" fill="#515151"/>
<path d="M37.4719 17.32C37.0559 17.32 36.8159 17.08 36.8159 16.648C36.8159 16.216 37.0559 15.992 37.4719 15.992H40.2239V12.312H38.2719C37.8719 12.312 37.6319 12.088 37.6319 11.656C37.6319 11.24 37.8719 11 38.2719 11H40.2239V8.53603C40.2239 7.89603 40.6239 7.54403 41.3439 7.54403C42.0639 7.54403 42.4639 7.89603 42.4639 8.53603V11H45.5199V8.53603C45.5199 7.89603 45.9199 7.54403 46.6399 7.54403C47.3439 7.54403 47.7599 7.89603 47.7599 8.53603V11H49.7439C50.1599 11 50.3839 11.24 50.3839 11.656C50.3839 12.088 50.1599 12.312 49.7439 12.312H47.7599V15.992H50.5439C50.9599 15.992 51.1999 16.216 51.1999 16.648C51.1999 17.08 50.9599 17.32 50.5439 17.32H37.4719ZM42.4639 12.312V15.992H45.5199V12.312H42.4639ZM42.8319 18.024C43.4079 18.552 43.3599 19.208 42.7199 19.736C41.1999 21.032 39.1199 22.072 37.7279 22.44C37.3759 22.536 37.0879 22.44 36.9599 22.136C36.8319 21.848 36.8959 21.576 37.2479 21.352C38.3999 20.616 39.8879 19.48 41.0719 18.12C41.5999 17.528 42.2879 17.512 42.8319 18.024ZM50.4799 20.104C51.1519 20.6 51.2959 21.272 50.7999 21.944C50.2879 22.584 49.5679 22.632 48.9439 22.04C47.8719 21.016 46.4319 19.784 45.3119 18.904C44.9599 18.616 44.8959 18.328 45.0879 17.992C45.2639 17.656 45.5519 17.592 45.9679 17.736C47.4079 18.2 49.1679 19.16 50.4799 20.104Z" fill="#515151"/>
<path d="M54.0839 12.408C53.7799 12.568 53.5079 12.584 53.3159 12.328C53.1239 12.056 53.1879 11.832 53.3959 11.592C54.4519 10.44 55.1719 9.04803 55.5879 7.89603C55.8119 7.28803 56.3879 7.08003 57.0279 7.32003C57.6839 7.57603 57.8119 8.07203 57.5239 8.71203V8.72803H60.2279C60.6119 8.72803 60.8359 8.98403 60.8359 9.35203C60.8359 9.73603 60.6119 9.96003 60.2279 9.96003H58.5159C58.7079 10.2 58.8839 10.456 59.0439 10.728C59.3319 11.288 59.1079 11.688 58.5319 11.848C57.9879 12.024 57.6199 11.8 57.5079 11.208C57.3959 10.792 57.2999 10.392 57.1879 9.96003H56.7719C56.0519 10.968 55.0439 11.912 54.0839 12.408ZM67.0599 19.192C67.4599 19.192 67.6839 19.4 67.6839 19.8C67.6839 20.184 67.4599 20.424 67.0599 20.424H61.6679V21.4C61.6679 22.136 61.2519 22.472 60.5159 22.472C59.7639 22.472 59.3479 22.136 59.3479 21.4V20.424H53.9079C53.5079 20.424 53.2839 20.184 53.2839 19.8C53.2839 19.4 53.5079 19.192 53.9079 19.192H59.3479V18.616H55.3319C54.9479 18.616 54.7399 18.392 54.7399 18.008C54.7399 17.624 54.9479 17.432 55.3319 17.432H59.3479V16.856H55.7159C55.3479 16.856 55.1239 16.616 55.1239 16.264C55.1239 15.896 55.3479 15.688 55.7159 15.688H59.3479V15.112H54.1319C53.7319 15.112 53.5079 14.872 53.5079 14.472C53.5079 14.088 53.7319 13.88 54.1319 13.88H59.3479V13.32H55.8599C55.4759 13.32 55.2679 13.128 55.2679 12.744C55.2679 12.376 55.4759 12.152 55.8599 12.152H59.3479V11.752C59.3479 11.112 59.7319 10.76 60.3399 10.696L60.3559 10.68C60.8679 9.88003 61.2999 9.00003 61.5719 7.96003C61.7479 7.28803 62.3079 7.16003 62.9799 7.38403C63.6199 7.59203 63.6679 8.10403 63.4279 8.66403L63.3799 8.76003H67.0599C67.4439 8.76003 67.6679 8.96803 67.6679 9.36803C67.6679 9.76803 67.4439 9.99203 67.0599 9.99203H65.0119C65.1879 10.184 65.3479 10.392 65.4919 10.616C65.8439 11.16 65.6519 11.608 65.0759 11.816C64.4999 12.04 64.0839 11.8 63.9399 11.192C63.8439 10.776 63.7319 10.376 63.6039 9.99203H62.6119C62.2919 10.408 61.9239 10.824 61.5399 11.176C61.6199 11.336 61.6679 11.512 61.6679 11.736V12.152H64.9959C65.6359 12.152 65.9879 12.504 65.9879 13.128V13.88H67.0759C67.4759 13.88 67.6839 14.104 67.6839 14.488C67.6839 14.888 67.4759 15.112 67.0759 15.112H65.9879V15.896C65.9879 16.536 65.6359 16.856 64.9959 16.856H61.6679V17.432H66.2439C66.6439 17.432 66.8519 17.624 66.8519 18.008C66.8519 18.392 66.6439 18.616 66.2439 18.616H61.6679V19.192H67.0599ZM61.6679 13.32V13.88H63.7959V13.608C63.7959 13.464 63.7159 13.32 63.6039 13.32H61.6679ZM61.6679 15.112V15.688H63.6039C63.7159 15.688 63.7959 15.64 63.7959 15.528V15.112H61.6679Z" fill="#515151"/>
<path d="M72.8399 21.672C72.5359 21.544 72.4079 21.288 72.5039 20.952C72.5839 20.648 72.7919 20.52 73.1919 20.568C75.6879 20.84 75.9919 20.648 75.9919 19.848V8.55203C75.9919 7.78403 76.3919 7.43203 77.1759 7.43203C77.9599 7.43203 78.3919 7.78403 78.3919 8.55203V20.344C78.3919 22.392 76.3279 23.16 72.8399 21.672ZM83.4159 19.064C82.6159 19.32 82.0079 19 81.8319 18.232C81.2399 15.864 80.5679 13.688 79.8959 12.008C79.7359 11.624 79.8319 11.352 80.1519 11.16C80.4719 10.984 80.8079 11.048 81.0319 11.384C82.1039 12.888 83.3999 15.16 84.1839 17.4C84.4879 18.232 84.1999 18.808 83.4159 19.064ZM70.7599 19.176C70.4719 19.432 70.1359 19.48 69.8959 19.24C69.6239 18.984 69.6239 18.712 69.8159 18.392C70.8239 16.792 71.6239 14.808 72.1039 12.104C72.2479 11.368 72.7599 11.064 73.4959 11.208C74.2639 11.368 74.5199 11.928 74.3599 12.6C73.7519 15.24 72.2479 17.848 70.7599 19.176Z" fill="#515151"/>
<path d="M91.7079 11.288H86.9399C86.5239 11.288 86.3159 11.064 86.3159 10.664C86.3159 10.248 86.5239 10.024 86.9399 10.024H88.3959V8.37603C88.3959 7.78403 88.7479 7.43203 89.4199 7.43203C90.0919 7.43203 90.4599 7.78403 90.4599 8.37603V10.024H91.7079C92.1079 10.024 92.3319 10.248 92.3319 10.664C92.3319 11.064 92.1079 11.288 91.7079 11.288ZM100.524 18.024C101.004 20.984 100.684 21.896 99.4999 21.992C98.9239 22.04 98.3799 22.056 97.7559 22.008C96.5719 21.912 96.2839 21.528 96.2839 20.184V16.12H95.7239C95.5799 19.288 94.3959 21.432 91.8039 22.392C91.4679 22.504 91.2279 22.424 91.0999 22.152C90.9559 21.88 91.0359 21.64 91.3399 21.432C93.0039 20.296 93.6919 18.936 93.7879 16.12H93.3719C92.7319 16.12 92.3959 15.768 92.3959 15.128V12.024C92.3959 11.4 92.7319 11.048 93.3719 11.048H94.1559C94.0119 10.936 93.8839 10.776 93.8039 10.536C93.5639 9.86403 93.2439 9.04803 92.9879 8.44003C92.8439 8.10403 92.9079 7.83203 93.1639 7.65603C93.4359 7.49603 93.7079 7.51203 93.9639 7.75203C94.4599 8.23203 95.0839 8.95203 95.4999 9.65603C95.8679 10.264 95.7239 10.712 95.1639 11.016C95.1479 11.032 95.1319 11.032 95.0999 11.048H96.5399C96.8279 10.2 97.0679 9.25603 97.2759 8.28003C97.4199 7.59203 97.8839 7.40003 98.5399 7.56003C99.1959 7.72003 99.3719 8.23203 99.1639 8.82403C98.8439 9.65603 98.3959 10.424 97.8999 11.048H98.8119C99.4359 11.048 99.7879 11.4 99.7879 12.024V15.128C99.7879 15.768 99.4359 16.12 98.8119 16.12H98.1879V19.736C98.1879 20.088 98.2519 20.184 98.5399 20.216C98.7319 20.232 98.9239 20.232 99.1159 20.216C99.4199 20.184 99.4679 19.992 99.5319 18.056C99.5319 17.688 99.7559 17.56 100.012 17.56C100.284 17.56 100.476 17.704 100.524 18.024ZM87.4199 13.464C87.0199 13.464 86.7959 13.24 86.7959 12.84C86.7959 12.456 87.0199 12.232 87.4199 12.232H91.2599C91.6599 12.232 91.8679 12.456 91.8679 12.84C91.8679 13.24 91.6599 13.464 91.2599 13.464H87.4199ZM94.4119 14.712C94.4119 14.824 94.4919 14.904 94.6039 14.904H97.5799C97.6919 14.904 97.7719 14.824 97.7719 14.712V12.456C97.7719 12.344 97.6919 12.264 97.5799 12.264H94.6039C94.4919 12.264 94.4119 12.344 94.4119 12.456V14.712ZM87.4359 15.576C87.0519 15.576 86.8119 15.336 86.8119 14.952C86.8119 14.552 87.0519 14.344 87.4359 14.344H91.2279C91.6279 14.344 91.8679 14.552 91.8679 14.952C91.8679 15.336 91.6279 15.576 91.2279 15.576H87.4359ZM91.9319 20.152C91.9319 20.776 91.5799 21.128 90.9399 21.128H88.7319V21.624C88.7319 22.152 88.3959 22.44 87.7879 22.44C87.1959 22.44 86.8599 22.152 86.8599 21.624V17.48C86.8599 16.856 87.2119 16.504 87.8359 16.504H90.9399C91.5799 16.504 91.9319 16.856 91.9319 17.48V20.152ZM90.0599 19.752V17.88C90.0599 17.768 89.9799 17.688 89.8679 17.688H88.9239C88.8119 17.688 88.7319 17.768 88.7319 17.88V19.944H89.8679C89.9799 19.944 90.0599 19.864 90.0599 19.752Z" fill="#515151"/>
</svg>
