<svg width="160" height="221" viewBox="0 0 160 221" fill="none" xmlns="http://www.w3.org/2000/svg">
<path d="M104.13 210.81C104.13 216.08 93.3899 220.36 80.1499 220.36C66.9099 220.36 56.1699 216.09 56.1699 210.81C56.1699 205.53 66.9099 201.26 80.1499 201.26C93.3899 201.26 104.13 205.53 104.13 210.81Z" fill="#CC8B49"/>
<path d="M84 206.77C84 209.104 82.2134 211 80 211C77.7927 211 76 209.104 76 206.77V170.23C76 167.896 77.7927 166 80 166C82.2073 166 84 167.896 84 170.23V206.77Z" fill="#677900"/>
<path d="M78.9364 183.995C79.795 184.853 79.8352 186.207 79.0212 187.022C78.2094 187.833 76.8527 187.795 75.9942 186.937L62.5556 173.498C61.6971 172.64 61.6591 171.283 62.4709 170.471C63.2827 169.659 64.6393 169.697 65.4979 170.556L78.9364 183.995Z" fill="#677900"/>
</svg>
