<svg width="160" height="221" viewBox="0 0 160 221" fill="none" xmlns="http://www.w3.org/2000/svg">
<path d="M79.95 220.11C93.1938 220.11 103.93 215.834 103.93 210.56C103.93 205.285 93.1938 201.01 79.95 201.01C66.7062 201.01 55.97 205.285 55.97 210.56C55.97 215.834 66.7062 220.11 79.95 220.11Z" fill="#CC8B49"/>
<path d="M86.51 205.11C86.51 208.73 83.58 211.67 79.95 211.67C76.33 211.67 73.39 208.73 73.39 205.11V144.27C73.39 140.65 76.33 137.71 79.95 137.71C83.57 137.71 86.51 140.65 86.51 144.27V205.11Z" fill="#996837"/>
<path d="M86.51 163.04V144.26C86.51 140.64 83.58 137.7 79.95 137.7C76.32 137.7 73.39 140.64 73.39 144.26V163.04H86.51Z" fill="#664624"/>
<path d="M63.7 55H96.21C114.8 55 129.9 70.0999 129.9 88.6899V121.2C129.9 139.79 114.8 154.89 96.21 154.89H63.7C45.11 154.89 30.01 139.79 30.01 121.2V88.6899C30.01 70.0999 45.11 55 63.7 55Z" fill="#66AAA3"/>
<path d="M79.8 79.0699C67.46 65.2399 46.28 63.9899 32.39 76.2199C30.85 80.0799 30 84.2799 30 88.6799V121.19C30 139.8 45.08 154.88 63.69 154.88H94.26L98.73 150.89C112.61 138.5 113.83 117.21 101.44 103.32L79.8 79.0599V79.0699Z" fill="#80D4CC"/>
</svg>
