<svg width="160" height="221" viewBox="0 0 160 221" fill="none" xmlns="http://www.w3.org/2000/svg">
<path d="M80.12 220.03C93.3638 220.03 104.1 215.754 104.1 210.48C104.1 205.205 93.3638 200.93 80.12 200.93C66.8762 200.93 56.14 205.205 56.14 210.48C56.14 215.754 66.8762 220.03 80.12 220.03Z" fill="#CC8B49"/>
<path d="M86.68 205.04C86.68 208.66 83.74 211.6 80.12 211.6C76.5 211.6 73.56 208.66 73.56 205.04V142.76C73.56 139.14 76.5 136.2 80.12 136.2C83.74 136.2 86.68 139.14 86.68 142.76V205.04Z" fill="#996837"/>
<path d="M80.12 158.94C82.39 158.94 84.58 158.64 86.68 158.1V142.76C86.68 139.14 83.74 136.2 80.12 136.2C76.5 136.2 73.56 139.14 73.56 142.76V158.1C75.65 158.65 77.85 158.94 80.12 158.94Z" fill="#664624"/>
<path d="M119.85 83.9299C129.97 80.4099 137.24 70.79 137.24 59.47C137.24 45.17 125.65 33.5699 111.34 33.5699C109.12 33.5699 106.96 33.85 104.9 34.38C101.68 23.75 91.8 16 80.12 16C68.44 16 58.56 23.74 55.34 34.38C53.28 33.85 51.12 33.5699 48.9 33.5699C34.6 33.5699 23 45.16 23 59.47C23 70.79 30.27 80.4099 40.39 83.9299C30.27 87.4499 23 97.07 23 108.39C23 122.69 34.59 134.29 48.9 134.29C51.1 134.29 53.23 134.01 55.27 133.5C58.4 144.27 68.35 152.15 80.13 152.15C91.91 152.15 101.86 144.27 104.99 133.5C107.03 134.01 109.16 134.29 111.36 134.29C125.66 134.29 137.26 122.69 137.26 108.39C137.26 97.07 129.99 87.4499 119.87 83.9299H119.85Z" fill="#FFAE5B"/>
<path d="M116.24 133.82C120.37 122.97 116.72 111.05 108.02 104.23C109.26 102.5 110.3 100.59 111.1 98.5199C116.27 85.1899 109.66 70.1799 96.32 65.0099C85.77 60.9199 74.17 64.2099 67.23 72.3799C67.61 61.6699 61.27 51.4199 50.71 47.3199C41.3 43.6699 31.06 45.8999 24.04 52.2099C23.37 54.5199 23 56.9599 23 59.4799C23 70.7999 30.27 80.4199 40.39 83.9399C30.27 87.4599 23 97.0799 23 108.4C23 122.7 34.59 134.3 48.9 134.3C51.1 134.3 53.23 134.02 55.27 133.51C58.4 144.28 68.35 152.16 80.13 152.16C91.91 152.16 101.86 144.28 104.99 133.51C107.03 134.02 109.16 134.3 111.36 134.3C113.03 134.3 114.67 134.14 116.25 133.83L116.24 133.82Z" fill="#FFBE7C"/>
<path d="M137.24 108.39C137.24 97.07 129.97 87.4499 119.85 83.9299C124.33 82.3699 128.25 79.62 131.22 76.05C123.56 70.65 113.22 69.6 104.33 74.23C94.29 79.46 89.11 90.3499 90.67 100.95C82.87 93.5999 70.99 91.5899 60.94 96.8199C48.26 103.42 43.32 119.06 49.93 131.75C50.37 132.59 50.85 133.38 51.36 134.16C52.69 134.03 53.99 133.82 55.25 133.5C58.38 144.27 68.33 152.15 80.11 152.15C91.89 152.15 101.84 144.27 104.97 133.5C107.01 134.01 109.14 134.29 111.34 134.29C125.64 134.29 137.24 122.69 137.24 108.39Z" fill="#FFCE9D"/>
</svg>
