<svg width="160" height="221" viewBox="0 0 160 221" fill="none" xmlns="http://www.w3.org/2000/svg">
<path d="M79.8 220.2C93.0438 220.2 103.78 215.924 103.78 210.65C103.78 205.376 93.0438 201.1 79.8 201.1C66.5562 201.1 55.82 205.376 55.82 210.65C55.82 215.924 66.5562 220.2 79.8 220.2Z" fill="#CC8B49"/>
<path d="M86.3601 205.21C86.3601 208.83 83.4201 211.77 79.8001 211.77C76.1801 211.77 73.2401 208.83 73.2401 205.21V142.93C73.2401 139.31 76.1801 136.37 79.8001 136.37C83.4201 136.37 86.3601 139.31 86.3601 142.93V205.21Z" fill="#996837"/>
<path d="M79.8001 159.11C82.0701 159.11 84.26 158.81 86.3601 158.27V142.93C86.3601 139.31 83.4201 136.37 79.8001 136.37C76.1801 136.37 73.2401 139.31 73.2401 142.93V158.27C75.3301 158.82 77.5301 159.11 79.8001 159.11Z" fill="#664624"/>
<path d="M104.7 109.57C111.04 107.36 115.6 101.34 115.6 94.24C115.6 85.28 108.33 78.01 99.37 78.01C97.98 78.01 96.62 78.19 95.33 78.52C93.31 71.86 87.12 67 79.8 67C72.48 67 66.29 71.85 64.27 78.52C62.98 78.19 61.63 78.01 60.23 78.01C51.27 78.01 44 85.28 44 94.24C44 101.34 48.55 107.36 54.9 109.57C48.56 111.78 44 117.8 44 124.9C44 133.86 51.27 141.13 60.23 141.13C61.61 141.13 62.94 140.96 64.22 140.63C66.18 147.38 72.41 152.32 79.8 152.32C87.19 152.32 93.42 147.38 95.38 140.63C96.66 140.95 97.99 141.13 99.37 141.13C108.33 141.13 115.6 133.86 115.6 124.9C115.6 117.8 111.05 111.78 104.7 109.57Z" fill="#FFAE5B"/>
</svg>
