<svg width="160" height="221" viewBox="0 0 160 221" fill="none" xmlns="http://www.w3.org/2000/svg">
<path d="M104.41 210.83C104.41 216.1 93.67 220.38 80.43 220.38C67.19 220.38 56.45 216.1 56.45 210.83C56.45 205.56 67.19 201.28 80.43 201.28C93.67 201.28 104.41 205.56 104.41 210.83Z" fill="#CC8B49"/>
<path d="M78.02 154.98C76.79 156.99 77.42 159.62 79.43 160.85C81.44 162.08 84.07 161.45 85.3 159.44L118.44 105.31C119.67 103.3 119.04 100.67 117.03 99.4401C115.02 98.2101 112.39 98.8402 111.16 100.85L78.02 154.98Z" fill="#664624"/>
<path d="M81.3401 157.73C82.5501 159.75 81.8901 162.38 79.8701 163.59C77.8501 164.8 75.22 164.14 74.01 162.12L23.7901 82.7C22.5801 80.68 23.24 78.0601 25.26 76.8401C27.28 75.6301 29.9101 76.2901 31.1201 78.3101L81.3401 157.73Z" fill="#664624"/>
<path d="M87.52 204.27C87.52 207.89 84.59 210.83 80.96 210.83C77.34 210.83 74.4 207.89 74.4 204.27V100.47C74.4 96.85 77.34 93.9199 80.96 93.9199C84.58 93.9199 87.52 96.86 87.52 100.47V204.27Z" fill="#996837"/>
<path d="M80.96 93.9199C77.34 93.9199 74.4 96.86 74.4 100.47V131.9C77.21 130.44 79.77 128.56 81.99 126.34C83.73 127.38 85.58 128.24 87.52 128.93V100.47C87.52 96.85 84.59 93.9199 80.96 93.9199Z" fill="#664624"/>
<path d="M108.18 38.79C108.18 55.79 94.3901 69.5801 77.3901 69.5801C60.3901 69.5801 46.6001 55.8 46.6001 38.79C46.6001 21.78 60.3801 8 77.3901 8C94.4001 8 108.18 21.79 108.18 38.79Z" fill="#D0DDFF"/>
<path d="M67.4301 61.1697C67.4301 63.5897 67.7201 65.9397 68.2401 68.1897C71.1301 69.0897 74.2 69.5698 77.39 69.5698C94.39 69.5698 108.18 55.7898 108.18 38.7798C108.18 36.3598 107.89 34.0098 107.37 31.7598C104.48 30.8598 101.41 30.3799 98.2201 30.3799C81.2201 30.3799 67.4301 44.1597 67.4301 61.1697Z" fill="#8AABFF"/>
<path d="M54.1901 25.3999C52.5901 25.3999 51.0201 25.52 49.4901 25.76C47.6401 29.72 46.6001 34.13 46.6001 38.79C46.6001 55.79 60.3801 69.5801 77.3901 69.5801C78.9901 69.5801 80.5601 69.46 82.0901 69.23C83.9401 65.27 84.9801 60.86 84.9801 56.2C84.9801 39.2 71.2001 25.4099 54.1901 25.4099V25.3999Z" fill="#6E89CC"/>
<path d="M34.79 96.29C51.7949 96.29 65.58 82.5048 65.58 65.5C65.58 48.4952 51.7949 34.71 34.79 34.71C17.7852 34.71 4 48.4952 4 65.5C4 82.5048 17.7852 96.29 34.79 96.29Z" fill="#D0DDFF"/>
<path d="M24.83 87.8901C24.83 90.3101 25.12 92.6602 25.64 94.9202C28.53 95.8202 31.6 96.3003 34.79 96.3003C51.79 96.3003 65.58 82.5203 65.58 65.5103C65.58 63.0903 65.29 60.7402 64.77 58.4902C61.88 57.5902 58.81 57.1104 55.62 57.1104C38.62 57.1104 24.83 70.8901 24.83 87.9001V87.8901Z" fill="#8AABFF"/>
<path d="M11.59 52.1201C9.99 52.1201 8.41998 52.24 6.88998 52.48C5.03998 56.43 4 60.85 4 65.51C4 82.52 17.78 96.3 34.79 96.3C36.39 96.3 37.95 96.1799 39.49 95.9399C41.34 91.9799 42.38 87.5699 42.38 82.9099C42.38 65.9099 28.59 52.1201 11.59 52.1201Z" fill="#6E89CC"/>
<path d="M155.79 59.3398C155.79 76.3498 142.01 90.1299 125 90.1299C107.99 90.1299 94.21 76.3498 94.21 59.3398C94.21 42.3298 107.99 28.5498 125 28.5498C142.01 28.5498 155.79 42.3398 155.79 59.3398Z" fill="#D0DDFF"/>
<path d="M115.04 81.7295C115.04 84.1495 115.33 86.4995 115.85 88.7495C118.74 89.6495 121.81 90.1296 125 90.1296C142 90.1296 155.79 76.3496 155.79 59.3396C155.79 56.9196 155.5 54.5796 154.98 52.3196C152.09 51.4196 149.02 50.9395 145.83 50.9395C128.83 50.9395 115.04 64.7295 115.04 81.7295Z" fill="#8AABFF"/>
<path d="M101.8 45.96C100.2 45.96 98.63 46.0801 97.1 46.3201C95.25 50.2801 94.21 54.6901 94.21 59.3501C94.21 76.3601 107.99 90.1399 125 90.1399C126.6 90.1399 128.16 90.02 129.7 89.78C131.55 85.82 132.59 81.41 132.59 76.75C132.59 59.74 118.81 45.96 101.8 45.96Z" fill="#6E89CC"/>
<path d="M119.532 113.384C131.556 101.359 131.557 81.8643 119.532 69.84C107.508 57.8158 88.013 57.8158 75.9887 69.84C63.9645 81.8643 63.9645 101.359 75.9888 113.384C88.013 125.408 107.508 125.408 119.532 113.384Z" fill="#D0DDFF"/>
<path d="M87.8 114C87.8 116.42 88.09 118.77 88.61 121.02C91.5 121.92 94.57 122.399 97.76 122.399C114.77 122.399 128.55 108.62 128.55 91.6096C128.55 89.1896 128.26 86.8396 127.74 84.5896C124.85 83.6896 121.78 83.2095 118.59 83.2095C101.59 83.2095 87.8 96.9895 87.8 114Z" fill="#8AABFF"/>
<path d="M74.57 78.2295C72.97 78.2295 71.4 78.3496 69.87 78.5896C68.02 82.5496 66.98 86.9596 66.98 91.6196C66.98 108.63 80.76 122.409 97.77 122.409C99.37 122.409 100.94 122.29 102.47 122.05C104.32 118.09 105.36 113.68 105.36 109.02C105.36 92.0195 91.57 78.2295 74.57 78.2295Z" fill="#6E89CC"/>
<path d="M91.0001 96.29C91.0001 113.29 77.2201 127.08 60.2101 127.08C43.2001 127.08 29.42 113.3 29.42 96.29C29.42 79.28 43.2101 65.5 60.2101 65.5C77.2101 65.5 91.0001 79.29 91.0001 96.29Z" fill="#D0DDFF"/>
<path d="M50.25 118.68C50.25 121.1 50.54 123.45 51.06 125.7C53.95 126.6 57.02 127.08 60.21 127.08C77.22 127.08 91 113.3 91 96.2898C91 93.8698 90.71 91.5198 90.19 89.2698C87.3 88.3698 84.23 87.8896 81.04 87.8896C64.04 87.8896 50.25 101.67 50.25 118.68Z" fill="#8AABFF"/>
<path d="M37.01 82.9102C35.41 82.9102 33.8401 83.0303 32.3101 83.2703C30.4601 87.2303 29.42 91.6403 29.42 96.3003C29.42 113.3 43.2101 127.09 60.2101 127.09C61.8101 127.09 63.3801 126.97 64.9101 126.74C66.7601 122.78 67.8 118.37 67.8 113.71C67.8 96.7102 54.01 82.9202 37.01 82.9202V82.9102Z" fill="#6E89CC"/>
</svg>
