<svg width="160" height="220" viewBox="0 0 160 220" fill="none" xmlns="http://www.w3.org/2000/svg">
<path d="M104.22 210.398C104.22 215.668 93.48 219.948 80.24 219.948C67 219.948 56.26 215.668 56.26 210.398C56.26 205.128 67 200.848 80.24 200.848C93.48 200.848 104.22 205.128 104.22 210.398Z" fill="#CC8B49"/>
<path d="M86.8 203.838C86.8 207.458 83.87 210.398 80.24 210.398C76.62 210.398 73.68 207.458 73.68 203.838V56.5083C73.68 52.8883 76.62 49.9482 80.24 49.9482C83.86 49.9482 86.8 52.8883 86.8 56.5083V203.838Z" fill="#996837"/>
<path d="M73.68 166.538C75.8 168.168 77.98 169.728 80.24 171.168C82.5 169.718 84.68 168.178 86.8 166.548V93.9482C82.48 92.9882 78.1 92.3483 73.68 92.0283V166.548V166.538Z" fill="#664624"/>
<path d="M38 86.1179C38 118.518 54.84 146.978 80.24 163.238C105.64 146.978 122.48 118.518 122.48 86.1179C122.48 53.7179 105.64 25.258 80.24 8.99805C54.84 25.258 38 53.7179 38 86.1179Z" fill="#B3E5E0"/>
<path d="M110.23 40.3779C81.75 44.9079 55.86 62.778 42.27 90.678C41 93.298 39.86 95.9479 38.86 98.6179C42.57 125.758 58.17 149.108 80.25 163.238C105.65 146.978 122.49 118.518 122.49 86.1179C122.49 69.4479 118.02 53.8279 110.24 40.3779H110.23Z" fill="#80D4CC"/>
<path d="M121.18 101.558C104.93 89.6383 85.25 83.5084 65.4 83.8484C56.68 103.628 55.09 126.188 61.49 147.318C66.99 153.428 73.3 158.798 80.25 163.248C101.53 149.628 116.79 127.448 121.19 101.568L121.18 101.558Z" fill="#66AAA3"/>
</svg>
