<svg width="160" height="220" viewBox="0 0 160 220" fill="none" xmlns="http://www.w3.org/2000/svg">
<path d="M103.96 210.2C103.96 215.47 93.22 219.75 79.98 219.75C66.74 219.75 56 215.47 56 210.2C56 204.93 66.74 200.65 79.98 200.65C93.22 200.65 103.96 204.93 103.96 210.2Z" fill="#CC8B49"/>
<path d="M86.54 203.64C86.54 207.26 83.61 210.2 79.98 210.2C76.36 210.2 73.42 207.26 73.42 203.64V129.97C73.42 126.35 76.36 123.41 79.98 123.41C83.6 123.41 86.54 126.35 86.54 129.97V203.64Z" fill="#996837"/>
<path d="M73.42 166.34C75.54 167.97 77.72 169.53 79.98 170.97C82.24 169.52 84.42 167.98 86.54 166.35V93.75C82.22 92.79 77.84 92.1501 73.42 91.8301V166.35V166.34Z" fill="#664624"/>
<path d="M56.14 119.52C56.14 137.8 65.64 153.86 79.98 163.04C94.31 153.87 103.82 137.81 103.82 119.52C103.82 101.23 94.32 85.18 79.98 76C65.65 85.17 56.14 101.23 56.14 119.52Z" fill="#B3E5E0"/>
</svg>
