<svg width="160" height="220" viewBox="0 0 160 220" fill="none" xmlns="http://www.w3.org/2000/svg">
<path d="M103.63 210.02C103.63 215.29 92.89 219.57 79.65 219.57C66.41 219.57 55.67 215.29 55.67 210.02C55.67 204.75 66.41 200.47 79.65 200.47C92.89 200.47 103.63 204.75 103.63 210.02Z" fill="#CC8B49"/>
<path d="M86.21 202.458C86.21 206.078 83.28 209.018 79.65 209.018C76.03 209.018 73.09 206.078 73.09 202.458V55.1284C73.09 51.5084 76.03 48.5684 79.65 48.5684C83.27 48.5684 86.21 51.5084 86.21 55.1284V202.458Z" fill="#996837"/>
<path d="M73.09 165.158C75.21 166.788 77.39 168.348 79.65 169.788C81.91 168.338 84.09 166.798 86.21 165.168V92.5684C81.89 91.6084 77.51 90.9684 73.09 90.6484V165.168V165.158Z" fill="#664624"/>
<path d="M46 100.428C46 126.238 59.41 148.908 79.65 161.858C99.89 148.908 113.3 126.238 113.3 100.428C113.3 74.6182 99.89 51.948 79.65 38.998C59.41 51.948 46 74.6182 46 100.428Z" fill="#B3E5E0"/>
<path d="M103.54 63.9883C80.85 67.5983 60.23 81.8384 49.4 104.058C48.38 106.138 47.48 108.258 46.68 110.378C49.63 131.998 62.06 150.598 79.65 161.858C99.89 148.908 113.3 126.238 113.3 100.428C113.3 87.1485 109.74 74.7083 103.54 63.9883Z" fill="#80D4CC"/>
</svg>
