<svg width="160" height="221" viewBox="0 0 160 221" fill="none" xmlns="http://www.w3.org/2000/svg">
<path d="M79.79 220.03C93.0338 220.03 103.77 215.754 103.77 210.48C103.77 205.205 93.0338 200.93 79.79 200.93C66.5462 200.93 55.81 205.205 55.81 210.48C55.81 215.754 66.5462 220.03 79.79 220.03Z" fill="#CC8B49"/>
<path d="M86.34 205.04C86.34 208.66 83.41 211.6 79.78 211.6C76.16 211.6 73.22 208.66 73.22 205.04V108.44C73.22 104.82 76.16 101.88 79.78 101.88C83.4 101.88 86.34 104.82 86.34 108.44V205.04Z" fill="#996837"/>
<path d="M86.34 159.47V108.74C86.34 105.13 83.56 101.97 79.95 101.88C76.34 101.79 73.22 104.76 73.22 108.44V159.48H86.34V159.47Z" fill="#664624"/>
<path d="M51.09 151.18C31.16 151.18 15 135.02 15 115.09C15 95.16 31.16 79 51.09 79H108.48C128.41 79 144.57 95.16 144.57 115.09C144.57 135.02 128.41 151.18 108.48 151.18H51.09Z" fill="#B3E5E0"/>
<path d="M121.7 148.67C120.76 134.94 111.98 122.36 98.24 117.27L44.43 97.32C36.16 94.25 27.48 94.42 19.77 97.17C16.74 102.45 15 108.57 15 115.09C15 135.02 31.16 151.18 51.09 151.18H108.48C113.14 151.18 117.6 150.28 121.69 148.67H121.7Z" fill="#80D4CC"/>
<path d="M144.02 108.81C136.75 106.08 128.56 105.66 120.58 108.16L65.82 125.31C53.74 129.09 45.07 138.64 41.87 149.98C44.82 150.76 47.91 151.18 51.09 151.18H108.48C128.41 151.18 144.57 135.02 144.57 115.09C144.57 112.95 144.37 110.85 144.02 108.81Z" fill="#66AAA3"/>
</svg>
