<svg width="160" height="220" viewBox="0 0 160 220" fill="none" xmlns="http://www.w3.org/2000/svg">
<path d="M104.209 210.23C104.209 215.5 93.4693 219.78 80.2293 219.78C66.9893 219.78 56.2493 215.5 56.2493 210.23C56.2493 204.96 66.9893 200.68 80.2293 200.68C93.4693 200.68 104.209 204.96 104.209 210.23Z" fill="#CC8B49"/>
<path d="M86.7892 203.68C86.7892 207.3 83.8492 210.24 80.2292 210.24C76.6092 210.24 73.6692 207.3 73.6692 203.68V155.37C73.6692 151.75 76.6092 148.81 80.2292 148.81C83.8492 148.81 86.7892 151.75 86.7892 155.37V203.68Z" fill="#996837"/>
<path d="M80.2292 171.72C82.5192 171.72 84.6892 171.63 86.7892 171.47V155.36C86.7892 151.74 83.8492 148.8 80.2292 148.8C76.6092 148.8 73.6692 151.74 73.6692 155.36V171.48C75.7592 171.64 77.9492 171.72 80.2292 171.72Z" fill="#664624"/>
<path d="M110.489 100.47C122.119 143.95 113.849 165.47 80.2292 165.47C46.6192 165.47 38.3392 143.95 49.9692 100.47L62.7492 59.71C65.1692 50.68 72.7492 45 80.2292 45C87.7092 45 95.2892 50.67 97.7092 59.71L110.489 100.47Z" fill="#89A100"/>
<path d="M114.939 139.68C110.849 131.06 103.619 121.55 93.3992 111.02L62.3792 81.6597C60.7692 79.9997 58.9892 78.6797 57.1192 77.6797L49.9692 100.47C38.3392 143.95 46.6092 165.47 80.2292 165.47C101.429 165.47 112.539 156.9 114.939 139.68Z" fill="#677900"/>
</svg>
