<svg width="160" height="220" viewBox="0 0 160 220" fill="none" xmlns="http://www.w3.org/2000/svg">
<path d="M103.548 210.45C103.548 215.72 92.8084 220 79.5684 220C66.3284 220 55.5884 215.72 55.5884 210.45C55.5884 205.18 66.3284 200.9 79.5684 200.9C92.8084 200.9 103.548 205.18 103.548 210.45Z" fill="#CC8B49"/>
<path d="M86.1283 203.9C86.1283 207.52 83.1883 210.46 79.5683 210.46C75.9483 210.46 73.0083 207.52 73.0083 203.9V155.59C73.0083 151.97 75.9483 149.03 79.5683 149.03C83.1883 149.03 86.1283 151.97 86.1283 155.59V203.9Z" fill="#996837"/>
<path d="M79.5683 171.94C81.8583 171.94 84.0283 171.85 86.1283 171.69V155.58C86.1283 151.96 83.1883 149.02 79.5683 149.02C75.9483 149.02 73.0083 151.96 73.0083 155.58V171.7C75.0983 171.86 77.2883 171.94 79.5683 171.94Z" fill="#664624"/>
<path d="M104.108 112.98C113.538 148.24 106.828 165.69 79.5684 165.69C52.3084 165.69 45.5984 148.24 55.0284 112.98L65.3884 79.9299C67.3484 72.6099 73.4984 68 79.5584 68C85.6284 68 91.7684 72.5999 93.7284 79.9299L104.088 112.98H104.108Z" fill="#89A100"/>
</svg>
