<svg width="160" height="221" viewBox="0 0 160 221" fill="none" xmlns="http://www.w3.org/2000/svg">
<path d="M79.6499 220.08C92.8937 220.08 103.63 215.804 103.63 210.53C103.63 205.256 92.8937 200.98 79.6499 200.98C66.4061 200.98 55.6699 205.256 55.6699 210.53C55.6699 215.804 66.4061 220.08 79.6499 220.08Z" fill="#CC8B49"/>
<path d="M86.21 205.09C86.21 208.71 83.27 211.65 79.65 211.65C76.03 211.65 73.09 208.71 73.09 205.09V142.81C73.09 139.19 76.03 136.25 79.65 136.25C83.27 136.25 86.21 139.19 86.21 142.81V205.09Z" fill="#996837"/>
<path d="M79.65 158.99C81.92 158.99 84.11 158.69 86.21 158.15V142.81C86.21 139.19 83.27 136.25 79.65 136.25C76.03 136.25 73.09 139.19 73.09 142.81V158.15C75.18 158.7 77.38 158.99 79.65 158.99Z" fill="#664624"/>
<path d="M112.11 96.48C120.38 93.6 126.31 85.75 126.31 76.5C126.31 64.82 116.84 55.3501 105.16 55.3501C103.34 55.3501 101.58 55.58 99.9 56.01C97.27 47.32 89.2 41 79.66 41C70.12 41 62.05 47.32 59.42 56.01C57.74 55.58 55.97 55.3501 54.16 55.3501C42.48 55.3501 33.01 64.82 33.01 76.5C33.01 85.75 38.95 93.6 47.21 96.48C38.94 99.36 33.01 107.21 33.01 116.46C33.01 128.14 42.48 137.61 54.16 137.61C55.95 137.61 57.7 137.38 59.36 136.96C61.92 145.76 70.04 152.19 79.67 152.19C89.3 152.19 97.42 145.76 99.98 136.96C101.64 137.38 103.39 137.61 105.18 137.61C116.86 137.61 126.33 128.14 126.33 116.46C126.33 107.21 120.39 99.35 112.13 96.48H112.11Z" fill="#677900"/>
<path d="M109.16 137.23C112.53 128.36 109.55 118.63 102.44 113.06C103.45 111.65 104.3 110.09 104.96 108.39C109.19 97.4997 103.78 85.2397 92.89 81.0197C84.27 77.6797 74.8 80.3697 69.13 87.0397C69.44 78.2897 64.26 69.9198 55.64 66.5698C47.95 63.5898 39.59 65.4098 33.85 70.5598C33.3 72.4498 33 74.4397 33 76.4997C33 85.7497 38.94 93.5997 47.2 96.4797C38.93 99.3597 33 107.21 33 116.46C33 128.14 42.47 137.61 54.15 137.61C55.94 137.61 57.69 137.38 59.35 136.96C61.91 145.76 70.03 152.19 79.66 152.19C89.29 152.19 97.41 145.76 99.97 136.96C101.63 137.38 103.38 137.61 105.17 137.61C106.54 137.61 107.87 137.48 109.17 137.23H109.16Z" fill="#89A100"/>
</svg>
