<svg width="160" height="220" viewBox="0 0 160 220" fill="none" xmlns="http://www.w3.org/2000/svg">
<path d="M104.22 210.398C104.22 215.668 93.48 219.948 80.24 219.948C67 219.948 56.26 215.668 56.26 210.398C56.26 205.128 67 200.848 80.24 200.848C93.48 200.848 104.22 205.128 104.22 210.398Z" fill="#CC8B49"/>
<path d="M86.7999 203.838C86.7999 207.458 83.8699 210.398 80.2399 210.398C76.6199 210.398 73.6799 207.458 73.6799 203.838V56.5083C73.6799 52.8883 76.6199 49.9482 80.2399 49.9482C83.8599 49.9482 86.7999 52.8883 86.7999 56.5083V203.838Z" fill="#996837"/>
<path d="M73.6799 166.538C75.7999 168.168 77.9799 169.728 80.2399 171.168C82.4999 169.718 84.6799 168.178 86.7999 166.548V93.9482C82.4799 92.9882 78.0999 92.3483 73.6799 92.0283V166.548V166.538Z" fill="#664624"/>
<path d="M38 86.1179C38 118.518 54.84 146.978 80.24 163.238C105.64 146.978 122.48 118.518 122.48 86.1179C122.48 53.7179 105.64 25.258 80.24 8.99805C54.84 25.258 38 53.7179 38 86.1179Z" fill="#ABC900"/>
<path d="M110.23 40.3779C81.75 44.9079 55.86 62.778 42.27 90.678C41 93.298 39.86 95.9479 38.86 98.6179C42.57 125.758 58.17 149.108 80.25 163.238C105.65 146.978 122.49 118.518 122.49 86.1179C122.49 69.4479 118.02 53.8279 110.24 40.3779H110.23Z" fill="#89A100"/>
<path d="M121.18 101.558C104.93 89.6383 85.2501 83.5084 65.4001 83.8484C56.6801 103.628 55.0901 126.188 61.4901 147.318C66.9901 153.428 73.3001 158.798 80.2501 163.248C101.53 149.628 116.79 127.448 121.19 101.568L121.18 101.558Z" fill="#677900"/>
</svg>
