<svg width="160" height="221" viewBox="0 0 160 221" fill="none" xmlns="http://www.w3.org/2000/svg">
<path d="M104.01 210.91C104.01 216.18 93.27 220.46 80.03 220.46C66.79 220.46 56.05 216.18 56.05 210.91C56.05 205.64 66.79 201.36 80.03 201.36C93.27 201.36 104.01 205.64 104.01 210.91Z" fill="#CC8B49"/>
<path d="M86.59 204.35C86.59 207.97 83.66 210.91 80.03 210.91C76.41 210.91 73.47 207.97 73.47 204.35V86.73C73.47 83.11 76.41 80.1699 80.03 80.1699C83.65 80.1699 86.59 83.11 86.59 86.73V204.35Z" fill="#996837"/>
<path d="M73.47 88.4502V157.17C75.62 156.98 77.81 156.87 80.03 156.87C82.25 156.87 84.43 156.98 86.59 157.17V88.4502C84.45 88.1502 82.26 87.9902 80.03 87.9902C77.8 87.9902 75.62 88.1602 73.47 88.4502Z" fill="#664624"/>
<path d="M80.03 149.06C93.2 149.06 105.35 152.58 115.11 158.52C122.54 150.2 127.06 139.24 127.06 127.21C127.06 101.24 106 80.1797 80.03 80.1797C54.06 80.1797 33 101.24 33 127.21C33 139.24 37.52 150.2 44.95 158.52C54.71 152.58 66.86 149.06 80.03 149.06Z" fill="#677900"/>
<path d="M80.03 105.65C90.48 105.65 100.12 108.44 107.86 113.15C113.75 106.55 117.34 97.8498 117.34 88.3098C117.34 67.7098 100.64 51 80.03 51C59.42 51 42.72 67.6998 42.72 88.3098C42.72 97.8498 46.31 106.55 52.2 113.15C59.94 108.44 69.58 105.65 80.03 105.65Z" fill="#89A100"/>
</svg>
