<svg width="160" height="221" viewBox="0 0 160 221" fill="none" xmlns="http://www.w3.org/2000/svg">
<path d="M104.13 210.81C104.13 216.08 93.39 220.36 80.15 220.36C66.91 220.36 56.17 216.09 56.17 210.81C56.17 205.53 66.91 201.26 80.15 201.26C93.39 201.26 104.13 205.53 104.13 210.81Z" fill="#CC8B49"/>
<path d="M86.71 204.25C86.71 207.87 83.78 210.81 80.15 210.81C76.53 210.81 73.59 207.87 73.59 204.25V147.59C73.59 143.97 76.53 141.03 80.15 141.03C83.77 141.03 86.71 143.97 86.71 147.59V204.25Z" fill="#996837"/>
<path d="M86.71 173.93V147.59C86.71 143.97 83.78 141.03 80.15 141.03C76.52 141.03 73.59 143.97 73.59 147.59V173.93H86.71Z" fill="#664624"/>
<path d="M80.15 76L129.3 164.35H31L80.15 76Z" fill="#66AAA3"/>
</svg>
