<svg width="160" height="220" viewBox="0 0 160 220" fill="none" xmlns="http://www.w3.org/2000/svg">
<path d="M103.99 209.95C103.99 215.22 93.25 219.5 80.01 219.5C66.77 219.5 56.03 215.23 56.03 209.95C56.03 204.67 66.77 200.4 80.01 200.4C93.25 200.4 103.99 204.67 103.99 209.95Z" fill="#CC8B49"/>
<path d="M86.57 203.39C86.57 207.01 83.64 209.95 80.01 209.95C76.39 209.95 73.45 207.01 73.45 203.39V146.73C73.45 143.11 76.39 140.17 80.01 140.17C83.63 140.17 86.57 143.11 86.57 146.73V203.39Z" fill="#996837"/>
<path d="M86.57 173.07V146.73C86.57 143.11 83.64 140.17 80.01 140.17C76.38 140.17 73.45 143.11 73.45 146.73V173.07H86.57Z" fill="#664624"/>
<path d="M80.01 75.1401L129.16 163.49H30.86L80.01 75.1401Z" fill="#66AAA3"/>
<path d="M80.01 32.73L137.03 135.22H23L80.01 32.73Z" fill="#80D4CC"/>
<path d="M80.01 14L118.94 83.98H41.08L80.01 14Z" fill="#B3E5E0"/>
</svg>
