<svg width="160" height="221" viewBox="0 0 160 221" fill="none" xmlns="http://www.w3.org/2000/svg">
<path d="M104.01 210.74C104.01 216.01 93.2701 220.29 80.03 220.29C66.79 220.29 56.05 216.01 56.05 210.74C56.05 205.47 66.79 201.19 80.03 201.19C93.2701 201.19 104.01 205.47 104.01 210.74Z" fill="#CC8B49"/>
<path d="M86.59 204.18C86.59 207.8 83.66 210.74 80.03 210.74C76.41 210.74 73.47 207.8 73.47 204.18V86.5601C73.47 82.9401 76.41 80 80.03 80C83.65 80 86.59 82.9401 86.59 86.5601V204.18Z" fill="#996837"/>
<path d="M73.47 88.2803V157C75.62 156.81 77.81 156.7 80.03 156.7C82.25 156.7 84.43 156.81 86.59 157V88.2803C84.45 87.9803 82.26 87.8203 80.03 87.8203C77.8 87.8203 75.62 87.9903 73.47 88.2803Z" fill="#664624"/>
<path d="M80.03 148.89C93.2 148.89 105.35 152.41 115.11 158.35C122.54 150.03 127.06 139.07 127.06 127.04C127.06 101.07 106 80.0098 80.03 80.0098C54.06 80.0098 33 101.07 33 127.04C33 139.07 37.52 150.03 44.95 158.35C54.71 152.41 66.86 148.89 80.03 148.89Z" fill="#66AAA3"/>
</svg>
