<svg width="160" height="220" viewBox="0 0 160 220" fill="none" xmlns="http://www.w3.org/2000/svg">
<path d="M103.548 210.45C103.548 215.72 92.8083 220 79.5683 220C66.3283 220 55.5883 215.72 55.5883 210.45C55.5883 205.18 66.3283 200.9 79.5683 200.9C92.8083 200.9 103.548 205.18 103.548 210.45Z" fill="#CC8B49"/>
<path d="M86.1284 203.9C86.1284 207.52 83.1884 210.46 79.5684 210.46C75.9484 210.46 73.0084 207.52 73.0084 203.9V155.59C73.0084 151.97 75.9484 149.03 79.5684 149.03C83.1884 149.03 86.1284 151.97 86.1284 155.59V203.9Z" fill="#996837"/>
<path d="M79.5684 171.94C81.8584 171.94 84.0284 171.85 86.1284 171.69V155.58C86.1284 151.96 83.1884 149.02 79.5684 149.02C75.9484 149.02 73.0084 151.96 73.0084 155.58V171.7C75.0984 171.86 77.2884 171.94 79.5684 171.94Z" fill="#664624"/>
<path d="M104.108 112.98C113.538 148.24 106.828 165.69 79.5684 165.69C52.3084 165.69 45.5984 148.24 55.0284 112.98L65.3884 79.9299C67.3484 72.6099 73.4984 68 79.5584 68C85.6284 68 91.7684 72.5999 93.7284 79.9299L104.088 112.98H104.108Z" fill="#80D4CC"/>
</svg>
