<svg width="160" height="220" viewBox="0 0 160 220" fill="none" xmlns="http://www.w3.org/2000/svg">
<path d="M103.597 210.32C103.597 215.59 92.8573 219.87 79.6173 219.87C66.3773 219.87 55.6373 215.59 55.6373 210.32C55.6373 205.05 66.3773 200.77 79.6173 200.77C92.8573 200.77 103.597 205.05 103.597 210.32Z" fill="#CC8B49"/>
<path d="M86.1773 203.77C86.1773 207.39 83.2373 210.33 79.6173 210.33C75.9973 210.33 73.0573 207.39 73.0573 203.77V155.46C73.0573 151.84 75.9973 148.9 79.6173 148.9C83.2373 148.9 86.1773 151.84 86.1773 155.46V203.77Z" fill="#996837"/>
<path d="M79.6173 171.81C81.9073 171.81 84.0773 171.72 86.1773 171.56V155.45C86.1773 151.83 83.2373 148.89 79.6173 148.89C75.9973 148.89 73.0573 151.83 73.0573 155.45V171.57C75.1473 171.73 77.3373 171.81 79.6173 171.81Z" fill="#664624"/>
<path d="M117.937 83.24C132.677 138.31 122.187 165.57 79.6173 165.57C37.0473 165.57 26.5573 138.32 41.2973 83.24L57.4773 31.6201C60.5373 20.1801 70.1373 13 79.6173 13C89.0873 13 98.6973 20.1901 101.757 31.6201L117.937 83.24Z" fill="#80D4CC"/>
<path d="M123.587 132.89C118.407 121.98 109.247 109.92 96.3073 96.5903L57.0173 59.4004C54.9773 57.3004 52.7173 55.6304 50.3473 54.3604L41.2973 83.2302C26.5673 138.3 37.0473 165.56 79.6173 165.56C106.467 165.56 120.537 154.71 123.587 132.89Z" fill="#66AAA3"/>
<path d="M115.827 82.6105C107.017 79.1305 95.4473 82.2904 88.3973 91.8004L54.3873 133.87C49.8673 139.98 45.9473 145.78 42.6373 151.3C49.7273 160.81 61.8773 165.56 79.6273 165.56C122.087 165.56 132.617 138.451 118.057 83.6805C117.337 83.2805 116.597 82.9105 115.827 82.6105Z" fill="#B3E5E0"/>
</svg>
