<svg width="160" height="220" viewBox="0 0 160 220" fill="none" xmlns="http://www.w3.org/2000/svg">
<path d="M104.32 210.42C104.32 215.69 93.58 219.97 80.34 219.97C67.1 219.97 56.36 215.7 56.36 210.42C56.36 205.14 67.1 200.87 80.34 200.87C93.58 200.87 104.32 205.14 104.32 210.42Z" fill="#CC8B49"/>
<path d="M86.9 203.86C86.9 207.48 83.96 210.42 80.34 210.42C76.72 210.42 73.78 207.48 73.78 203.86V163.64C73.78 160.02 76.72 157.08 80.34 157.08C83.96 157.08 86.9 160.02 86.9 163.64V203.86Z" fill="#996837"/>
<path d="M80.34 172.05C82.57 172.05 84.76 171.87 86.9 171.52V163.65C86.9 160.03 83.96 157.09 80.34 157.09C76.72 157.09 73.78 160.03 73.78 163.65V171.51C75.92 171.85 78.1 172.05 80.34 172.05Z" fill="#664624"/>
<path d="M110.69 135.6C110.69 152.36 97.1 165.94 80.34 165.94C63.58 165.94 50 152.35 50 135.6V87.35C50 70.59 63.59 57 80.34 57C97.1 57 110.69 70.59 110.69 87.35V135.6Z" fill="#FCE5E6"/>
<path d="M82.75 96.9599L59.85 139.43C57.35 144.06 56.18 149.06 56.21 153.98C61.75 161.25 70.5 165.94 80.35 165.94C97.11 165.94 110.7 152.35 110.7 135.6V87.3499C110.7 85.1799 110.47 83.0699 110.04 81.0299C99.05 80.8299 88.34 86.6199 82.76 96.9599H82.75Z" fill="#F27F82"/>
</svg>
