<svg width="160" height="221" viewBox="0 0 160 221" fill="none" xmlns="http://www.w3.org/2000/svg">
<path d="M104.13 210.81C104.13 216.08 93.3899 220.36 80.1499 220.36C66.9099 220.36 56.1699 216.09 56.1699 210.81C56.1699 205.53 66.9099 201.26 80.1499 201.26C93.3899 201.26 104.13 205.53 104.13 210.81Z" fill="#CC8B49"/>
<path d="M84.0002 206.77C84.0002 209.104 82.2137 211 80.0002 211C77.7929 211 76.0002 209.104 76.0002 206.77V170.23C76.0002 167.896 77.7929 166 80.0002 166C82.2076 166 84.0002 167.896 84.0002 170.23V206.77Z" fill="#677900"/>
<path d="M54.9181 202.469C56.0554 202.044 57.3046 202.569 57.7078 203.647C58.11 204.723 57.5129 205.942 56.3756 206.367L38.5746 213.024C37.4373 213.449 36.1871 212.921 35.7849 211.846C35.3828 210.77 35.9799 209.552 37.1172 209.126L54.9181 202.469Z" fill="#677900"/>
<path d="M134.489 212.257C135.649 212.615 136.317 213.794 135.977 214.894C135.639 215.991 134.421 216.591 133.261 216.233L115.102 210.625C113.942 210.267 113.275 209.085 113.614 207.988C113.953 206.891 115.17 206.291 116.33 206.649L134.489 212.257Z" fill="#677900"/>
<path d="M95 123.406C95 123.5 95 123.5 95 123.5V129.5C95 132.031 92.9375 134 90.5 134H86V129.5C86 128.75 85.25 128 84.5 128C83.6562 128 83 128.75 83 129.5V134H77V129.5C77 128.75 76.25 128 75.5 128C74.6562 128 74 128.75 74 129.5V134H69.5C66.9688 134 65 132.031 65 129.5V123.5C65 123.5 65 123.5 65 123.406C59.4688 119.562 56 113.656 56 107C56 95.4688 66.6875 86 80 86C93.2188 86 104 95.4688 104 107C104 113.656 100.438 119.562 95 123.406ZM65 110C65 112.156 66.125 114.125 68 115.25C69.7812 116.281 72.125 116.281 74 115.25C75.7812 114.125 77 112.156 77 110C77 107.938 75.7812 105.969 74 104.844C72.125 103.812 69.7812 103.812 68 104.844C66.125 105.969 65 107.938 65 110ZM89 104C86.8438 104 84.875 105.219 83.75 107C82.7188 108.875 82.7188 111.219 83.75 113C84.875 114.875 86.8438 116 89 116C91.0625 116 93.0312 114.875 94.1562 113C95.1875 111.219 95.1875 108.875 94.1562 107C93.0312 105.219 91.0625 104 89 104Z" fill="#B84B55"/>
<ellipse cx="112" cy="202.5" rx="4" ry="1.5" fill="#ABC900"/>
<ellipse cx="47" cy="218.5" rx="4" ry="1.5" fill="#677900"/>
</svg>
