<svg width="99" height="200" viewBox="0 0 99 200" fill="none" xmlns="http://www.w3.org/2000/svg">
<path d="M73.13 189.72C73.13 194.99 62.39 199.27 49.15 199.27C35.91 199.27 25.17 195 25.17 189.72C25.17 184.44 35.91 180.17 49.15 180.17C62.39 180.17 73.13 184.44 73.13 189.72Z" fill="#CC8B49"/>
<path d="M89.38 40.23C89.38 62.45 71.37 80.46 49.15 80.46C26.93 80.46 8.92004 62.45 8.92004 40.23C8.92004 18.01 26.93 0 49.15 0C71.37 0 89.38 18.01 89.38 40.23Z" fill="#F5999B"/>
<path d="M36.14 69.4798C36.14 72.6398 36.51 75.7098 37.2 78.6598C40.98 79.8298 44.99 80.4698 49.15 80.4698C71.37 80.4698 89.38 62.4598 89.38 40.2398C89.38 37.0798 89 34.0098 88.32 31.0698C84.54 29.8998 80.53 29.2598 76.37 29.2598C54.15 29.2598 36.14 47.2698 36.14 69.4898V69.4798Z" fill="#FCE5E6"/>
<path d="M18.84 22.7402C16.75 22.7402 14.7 22.9002 12.7 23.2102C10.28 28.3802 8.92004 34.1502 8.92004 40.2302C8.92004 62.4502 26.93 80.4602 49.15 80.4602C51.24 80.4602 53.29 80.3002 55.29 79.9902C57.71 74.8202 59.07 69.0502 59.07 62.9702C59.07 40.7502 41.06 22.7402 18.84 22.7402Z" fill="#F27F82"/>
<path d="M55.71 183.17C55.71 186.79 52.77 189.73 49.15 189.73C45.53 189.73 42.59 186.79 42.59 183.17V126.51C42.59 122.89 45.53 119.95 49.15 119.95C52.77 119.95 55.71 122.89 55.71 126.51V183.17Z" fill="#996837"/>
<path d="M49.15 119.95C45.53 119.95 42.59 122.89 42.59 126.51V152.45C44.74 152.74 46.92 152.9 49.15 152.9C51.38 152.9 53.56 152.74 55.71 152.45V126.51C55.71 122.89 52.77 119.95 49.15 119.95Z" fill="#664624"/>
<path d="M98.31 93.8799C98.31 121.03 76.3 143.03 49.16 143.03C22.02 143.03 0.0100098 121.02 0.0100098 93.8799C0.0100098 66.7399 22.02 44.73 49.16 44.73C76.3 44.73 98.31 66.7399 98.31 93.8799Z" fill="#F5999B"/>
<path d="M33.25 129.61C33.25 133.47 33.71 137.22 34.55 140.82C39.16 142.25 44.07 143.03 49.15 143.03C76.3 143.03 98.3 121.02 98.3 93.8797C98.3 90.0197 97.84 86.2697 97 82.6697C92.39 81.2397 87.48 80.4697 82.4 80.4697C55.25 80.4697 33.25 102.48 33.25 129.62V129.61Z" fill="#FCE5E6"/>
<path d="M12.12 72.5098C9.56999 72.5098 7.06999 72.6998 4.62 73.0798C1.66 79.3998 0 86.4398 0 93.8798C0 121.03 22.01 143.03 49.15 143.03C51.7 143.03 54.2 142.84 56.65 142.46C59.61 136.14 61.27 129.1 61.27 121.66C61.27 94.5098 39.26 72.5098 12.12 72.5098Z" fill="#F27F82"/>
</svg>
