<svg width="160" height="220" viewBox="0 0 160 220" fill="none" xmlns="http://www.w3.org/2000/svg">
<path d="M103.99 210.22C103.99 215.49 93.25 219.77 80.01 219.77C66.77 219.77 56.03 215.5 56.03 210.22C56.03 204.94 66.77 200.67 80.01 200.67C93.25 200.67 103.99 204.94 103.99 210.22Z" fill="#CC8B49"/>
<path d="M86.57 203.66C86.57 207.28 83.64 210.22 80.01 210.22C76.39 210.22 73.45 207.28 73.45 203.66V147C73.45 143.38 76.39 140.44 80.01 140.44C83.63 140.44 86.57 143.38 86.57 147V203.66Z" fill="#996837"/>
<path d="M86.57 173.34V147C86.57 143.38 83.64 140.44 80.01 140.44C76.38 140.44 73.45 143.38 73.45 147V173.34H86.57Z" fill="#664624"/>
<path d="M80.01 75.4102L129.16 163.76H30.86L80.01 75.4102Z" fill="#F27F82"/>
<path d="M80.01 33L137.03 135.49H23L80.01 33Z" fill="#F5999B"/>
</svg>
