<svg width="160" height="221" viewBox="0 0 160 221" fill="none" xmlns="http://www.w3.org/2000/svg">
<path d="M104.13 210.81C104.13 216.08 93.3899 220.36 80.1499 220.36C66.9099 220.36 56.1699 216.09 56.1699 210.81C56.1699 205.53 66.9099 201.26 80.1499 201.26C93.3899 201.26 104.13 205.53 104.13 210.81Z" fill="#CC8B49"/>
<path d="M86.7101 204.25C86.7101 207.87 83.7801 210.81 80.1501 210.81C76.5301 210.81 73.5901 207.87 73.5901 204.25V147.59C73.5901 143.97 76.5301 141.03 80.1501 141.03C83.7701 141.03 86.7101 143.97 86.7101 147.59V204.25Z" fill="#996837"/>
<path d="M86.7101 173.93V147.59C86.7101 143.97 83.7801 141.03 80.1501 141.03C76.5201 141.03 73.5901 143.97 73.5901 147.59V173.93H86.7101Z" fill="#664624"/>
<path d="M80.15 76L129.3 164.35H31L80.15 76Z" fill="#677900"/>
</svg>
