<svg width="160" height="221" viewBox="0 0 160 221" fill="none" xmlns="http://www.w3.org/2000/svg">
<path d="M111.41 210.83C111.41 216.1 100.67 220.38 87.43 220.38C74.19 220.38 63.45 216.1 63.45 210.83C63.45 205.56 74.19 201.28 87.43 201.28C100.67 201.28 111.41 205.56 111.41 210.83Z" fill="#CC8B49"/>
<path d="M85.02 154.98C83.79 156.99 84.42 159.62 86.43 160.85C88.44 162.08 91.07 161.45 92.3 159.44L125.44 105.31C126.67 103.3 126.04 100.67 124.03 99.4401C122.02 98.2101 119.39 98.8402 118.16 100.85L85.02 154.98Z" fill="#664624"/>
<path d="M88.34 157.73C89.55 159.75 88.89 162.38 86.87 163.59C84.85 164.8 82.22 164.14 81.01 162.12L30.79 82.7C29.58 80.68 30.24 78.0601 32.26 76.8401C34.28 75.6301 36.91 76.2901 38.12 78.3101L88.34 157.73Z" fill="#664624"/>
<path d="M94.51 204.27C94.51 207.89 91.58 210.83 87.95 210.83C84.33 210.83 81.39 207.89 81.39 204.27V100.47C81.39 96.85 84.33 93.9199 87.95 93.9199C91.57 93.9199 94.51 96.86 94.51 100.47V204.27Z" fill="#996837"/>
<path d="M87.96 93.9199C84.34 93.9199 81.4 96.86 81.4 100.47V131.9C84.21 130.44 86.77 128.56 88.99 126.34C90.73 127.38 92.58 128.24 94.52 128.93V100.47C94.52 96.85 91.59 93.9199 87.96 93.9199Z" fill="#664624"/>
<path d="M115.18 58.79C115.18 75.79 101.39 89.5801 84.39 89.5801C67.39 89.5801 53.6 75.8 53.6 58.79C53.6 41.78 67.38 28 84.39 28C101.4 28 115.18 41.79 115.18 58.79Z" fill="#FFCE9D"/>
<path d="M74.4301 81.1697C74.4301 83.5897 74.7201 85.9397 75.2401 88.1897C78.1301 89.0897 81.2 89.5698 84.39 89.5698C101.39 89.5698 115.18 75.7898 115.18 58.7798C115.18 56.3598 114.89 54.0098 114.37 51.7598C111.48 50.8598 108.41 50.3799 105.22 50.3799C88.2201 50.3799 74.4301 64.1597 74.4301 81.1697Z" fill="#FFBE7C"/>
<path d="M61.19 45.3999C59.59 45.3999 58.02 45.52 56.49 45.76C54.64 49.72 53.6 54.13 53.6 58.79C53.6 75.79 67.38 89.5801 84.39 89.5801C85.99 89.5801 87.56 89.46 89.09 89.23C90.94 85.27 91.98 80.86 91.98 76.2C91.98 59.2 78.2 45.4099 61.19 45.4099V45.3999Z" fill="#FFAE5B"/>
<path d="M41.79 116.29C58.7949 116.29 72.58 102.505 72.58 85.5C72.58 68.4952 58.7949 54.71 41.79 54.71C24.7852 54.71 11 68.4952 11 85.5C11 102.505 24.7852 116.29 41.79 116.29Z" fill="#FFCE9D"/>
<path d="M31.83 107.89C31.83 110.31 32.12 112.66 32.64 114.92C35.53 115.82 38.6 116.3 41.79 116.3C58.79 116.3 72.58 102.52 72.58 85.5098C72.58 83.0898 72.29 80.7397 71.77 78.4897C68.88 77.5897 65.81 77.1099 62.62 77.1099C45.62 77.1099 31.83 90.8897 31.83 107.9V107.89Z" fill="#FFBE7C"/>
<path d="M18.59 72.1201C16.99 72.1201 15.42 72.24 13.89 72.48C12.04 76.43 11 80.85 11 85.51C11 102.52 24.78 116.3 41.79 116.3C43.39 116.3 44.95 116.18 46.49 115.94C48.34 111.98 49.38 107.57 49.38 102.91C49.38 85.9099 35.59 72.1201 18.59 72.1201Z" fill="#FFAE5B"/>
<path d="M126.525 113.381C138.549 101.357 138.549 81.8618 126.525 69.8376C114.501 57.8133 95.0057 57.8133 82.9815 69.8376C70.9572 81.8618 70.9573 101.357 82.9815 113.381C95.0057 125.405 114.501 125.405 126.525 113.381Z" fill="#FFCE9D"/>
<path d="M94.8 114C94.8 116.42 95.09 118.77 95.61 121.02C98.5 121.92 101.57 122.4 104.76 122.4C121.77 122.4 135.55 108.62 135.55 91.6101C135.55 89.1901 135.26 86.8401 134.74 84.5901C131.85 83.6901 128.78 83.21 125.59 83.21C108.59 83.21 94.8 96.99 94.8 114Z" fill="#FFBE7C"/>
<path d="M81.56 78.23C79.96 78.23 78.39 78.3501 76.86 78.5901C75.01 82.5501 73.97 86.9601 73.97 91.6201C73.97 108.63 87.75 122.41 104.76 122.41C106.36 122.41 107.93 122.29 109.46 122.05C111.31 118.09 112.35 113.68 112.35 109.02C112.35 92.02 98.56 78.23 81.56 78.23Z" fill="#FFAE5B"/>
</svg>
