<svg width="160" height="220" viewBox="0 0 160 220" fill="none" xmlns="http://www.w3.org/2000/svg">
<path d="M99.77 210.33C99.77 215.6 89.03 219.88 75.79 219.88C62.55 219.88 51.81 215.6 51.81 210.33C51.81 205.06 62.55 200.78 75.79 200.78C89.03 200.78 99.77 205.06 99.77 210.33Z" fill="#CC8B49"/>
<path d="M73.38 154.48C72.15 156.49 72.78 159.12 74.79 160.35C76.8 161.58 79.43 160.95 80.66 158.94L113.8 104.81C115.03 102.8 114.4 100.17 112.39 98.9401C110.38 97.7101 107.75 98.3402 106.52 100.35L73.38 154.48Z" fill="#664624"/>
<path d="M82.87 203.77C82.87 207.39 79.94 210.33 76.31 210.33C72.69 210.33 69.75 207.39 69.75 203.77V99.97C69.75 96.35 72.69 93.4199 76.31 93.4199C79.93 93.4199 82.87 96.36 82.87 99.97V203.77Z" fill="#996837"/>
<path d="M76.32 93.4199C72.7 93.4199 69.76 96.36 69.76 99.97V131.4C72.57 129.94 75.13 128.06 77.35 125.84C79.09 126.88 80.94 127.74 82.88 128.43V99.97C82.88 96.35 79.95 93.4199 76.32 93.4199Z" fill="#664624"/>
<path d="M106.58 95.79C106.58 112.79 92.8 126.58 75.79 126.58C58.78 126.58 45 112.8 45 95.79C45 78.78 58.79 65 75.79 65C92.79 65 106.58 78.79 106.58 95.79Z" fill="#FFCE9D"/>
<path d="M65.83 118.18C65.83 120.6 66.12 122.95 66.64 125.2C69.53 126.1 72.6 126.58 75.79 126.58C92.8 126.58 106.58 112.8 106.58 95.7898C106.58 93.3698 106.29 91.0198 105.77 88.7698C102.88 87.8698 99.81 87.3896 96.62 87.3896C79.62 87.3896 65.83 101.17 65.83 118.18Z" fill="#FFBE7C"/>
<path d="M52.59 82.4102C50.99 82.4102 49.42 82.5303 47.89 82.7703C46.04 86.7303 45 91.1403 45 95.8003C45 112.8 58.79 126.59 75.79 126.59C77.39 126.59 78.96 126.47 80.49 126.24C82.34 122.28 83.38 117.87 83.38 113.21C83.38 96.2102 69.59 82.4202 52.59 82.4202V82.4102Z" fill="#FFAE5B"/>
</svg>
