<svg width="160" height="220" viewBox="0 0 160 220" fill="none" xmlns="http://www.w3.org/2000/svg">
<path d="M104.13 209.98C104.13 215.25 93.3899 219.53 80.1499 219.53C66.9099 219.53 56.1699 215.26 56.1699 209.98C56.1699 204.7 66.9099 200.43 80.1499 200.43C93.3899 200.43 104.13 204.7 104.13 209.98Z" fill="#CC8B49"/>
<path d="M49.8399 43C47.7499 43 45.6999 43.16 43.6999 43.47C41.2799 48.64 39.9199 54.41 39.9199 60.49C39.9199 82.71 57.9299 100.72 80.1499 100.72C82.2399 100.72 84.2899 100.56 86.2899 100.25C88.7099 95.08 90.0699 89.31 90.0699 83.23C90.0699 61.01 72.0599 43 49.8399 43Z" fill="#6E89CC"/>
<path d="M86.71 203.43C86.71 207.05 83.77 209.99 80.15 209.99C76.53 209.99 73.59 207.05 73.59 203.43V146.77C73.59 143.15 76.53 140.21 80.15 140.21C83.77 140.21 86.71 143.15 86.71 146.77V203.43Z" fill="#996837"/>
<path d="M80.15 140.21C76.53 140.21 73.59 143.15 73.59 146.77V172.71C75.74 173 77.92 173.16 80.15 173.16C82.38 173.16 84.56 173 86.71 172.71V146.77C86.71 143.15 83.77 140.21 80.15 140.21Z" fill="#664624"/>
<path d="M129.31 114.14C129.31 141.29 107.3 163.29 80.16 163.29C53.02 163.29 31.01 141.28 31.01 114.14C31.01 87.0002 53.02 64.9902 80.16 64.9902C107.3 64.9902 129.31 87.0002 129.31 114.14Z" fill="#8AABFF"/>
<path d="M64.25 149.87C64.25 153.73 64.71 157.48 65.55 161.08C70.16 162.51 75.07 163.29 80.15 163.29C107.3 163.29 129.3 141.28 129.3 114.14C129.3 110.28 128.84 106.53 128 102.93C123.39 101.5 118.48 100.73 113.4 100.73C86.25 100.73 64.25 122.74 64.25 149.88V149.87Z" fill="#D0DDFF"/>
<path d="M43.12 92.77C40.57 92.77 38.07 92.96 35.62 93.34C32.66 99.66 31 106.7 31 114.14C31 141.29 53.01 163.29 80.15 163.29C82.7 163.29 85.2 163.1 87.65 162.72C90.61 156.4 92.27 149.36 92.27 141.92C92.27 114.77 70.26 92.77 43.12 92.77Z" fill="#6E89CC"/>
</svg>
