<svg width="160" height="220" viewBox="0 0 160 220" fill="none" xmlns="http://www.w3.org/2000/svg">
<path d="M104.24 210.21C104.24 215.48 93.5 219.76 80.26 219.76C67.02 219.76 56.28 215.49 56.28 210.21C56.28 204.93 67.02 200.66 80.26 200.66C93.5 200.66 104.24 204.93 104.24 210.21Z" fill="#CC8B49"/>
<path d="M86.82 203.66C86.82 207.28 83.88 210.22 80.26 210.22C76.64 210.22 73.7 207.28 73.7 203.66V147C73.7 143.38 76.64 140.44 80.26 140.44C83.88 140.44 86.82 143.38 86.82 147V203.66Z" fill="#996837"/>
<path d="M80.26 140.44C76.64 140.44 73.7 143.38 73.7 147V172.94C75.85 173.23 78.03 173.39 80.26 173.39C82.49 173.39 84.67 173.23 86.82 172.94V147C86.82 143.38 83.88 140.44 80.26 140.44Z" fill="#664624"/>
<path d="M115.52 128.26C115.52 147.73 99.73 163.52 80.26 163.52C60.79 163.52 45 147.73 45 128.26C45 108.79 60.79 93 80.26 93C99.73 93 115.52 108.79 115.52 128.26Z" fill="#8AABFF"/>
<path d="M68.86 153.89C68.86 156.66 69.19 159.35 69.79 161.93C73.1 162.96 76.62 163.51 80.26 163.51C99.73 163.51 115.52 147.72 115.52 128.25C115.52 125.48 115.19 122.79 114.59 120.21C111.28 119.18 107.76 118.63 104.12 118.63C84.65 118.63 68.86 134.42 68.86 153.89Z" fill="#D0DDFF"/>
<path d="M53.69 112.93C51.86 112.93 50.06 113.07 48.31 113.34C46.19 117.87 45 122.93 45 128.26C45 147.73 60.79 163.52 80.26 163.52C82.09 163.52 83.89 163.38 85.64 163.11C87.76 158.58 88.95 153.52 88.95 148.19C88.95 128.72 73.16 112.93 53.69 112.93Z" fill="#6E89CC"/>
</svg>
