<svg width="160" height="221" viewBox="0 0 160 221" fill="none" xmlns="http://www.w3.org/2000/svg">
<path d="M104.13 210.72C104.13 215.99 93.39 220.27 80.15 220.27C66.91 220.27 56.17 216 56.17 210.72C56.17 205.44 66.91 201.17 80.15 201.17C93.39 201.17 104.13 205.44 104.13 210.72Z" fill="#CC8B49"/>
<path d="M120.38 61.23C120.38 83.45 102.37 101.46 80.15 101.46C57.93 101.46 39.92 83.45 39.92 61.23C39.92 39.01 57.93 21 80.15 21C102.37 21 120.38 39.01 120.38 61.23Z" fill="#8AABFF"/>
<path d="M67.14 90.4798C67.14 93.6398 67.51 96.7098 68.2 99.6598C71.98 100.83 75.99 101.47 80.15 101.47C102.37 101.47 120.38 83.4598 120.38 61.2398C120.38 58.0798 120 55.0098 119.32 52.0698C115.54 50.8998 111.53 50.2598 107.37 50.2598C85.15 50.2598 67.14 68.2698 67.14 90.4898V90.4798Z" fill="#D0DDFF"/>
<path d="M49.84 43.7402C47.75 43.7402 45.7 43.9002 43.7 44.2102C41.28 49.3802 39.92 55.1502 39.92 61.2302C39.92 83.4502 57.93 101.46 80.15 101.46C82.24 101.46 84.29 101.3 86.29 100.99C88.71 95.8202 90.07 90.0502 90.07 83.9702C90.07 61.7502 72.06 43.7402 49.84 43.7402Z" fill="#6E89CC"/>
<path d="M86.71 204.17C86.71 207.79 83.77 210.73 80.15 210.73C76.53 210.73 73.59 207.79 73.59 204.17V147.51C73.59 143.89 76.53 140.95 80.15 140.95C83.77 140.95 86.71 143.89 86.71 147.51V204.17Z" fill="#996837"/>
<path d="M80.15 140.95C76.53 140.95 73.59 143.89 73.59 147.51V173.45C75.74 173.74 77.92 173.9 80.15 173.9C82.38 173.9 84.56 173.74 86.71 173.45V147.51C86.71 143.89 83.77 140.95 80.15 140.95Z" fill="#664624"/>
<path d="M129.31 114.88C129.31 142.03 107.3 164.03 80.16 164.03C53.02 164.03 31.01 142.02 31.01 114.88C31.01 87.7399 53.02 65.73 80.16 65.73C107.3 65.73 129.31 87.7399 129.31 114.88Z" fill="#8AABFF"/>
<path d="M64.25 150.61C64.25 154.47 64.71 158.22 65.55 161.82C70.16 163.25 75.07 164.03 80.15 164.03C107.3 164.03 129.3 142.02 129.3 114.88C129.3 111.02 128.84 107.27 128 103.67C123.39 102.24 118.48 101.47 113.4 101.47C86.25 101.47 64.25 123.48 64.25 150.62V150.61Z" fill="#D0DDFF"/>
<path d="M43.12 93.5098C40.57 93.5098 38.07 93.6998 35.62 94.0798C32.66 100.4 31 107.44 31 114.88C31 142.03 53.01 164.03 80.15 164.03C82.7 164.03 85.2 163.84 87.65 163.46C90.61 157.14 92.27 150.1 92.27 142.66C92.27 115.51 70.26 93.5098 43.12 93.5098Z" fill="#6E89CC"/>
</svg>
