<svg width="160" height="220" viewBox="0 0 160 220" fill="none" xmlns="http://www.w3.org/2000/svg">
<path d="M121.31 210.16C121.31 215.43 110.57 219.71 97.33 219.71C84.09 219.71 73.35 215.43 73.35 210.16C73.35 204.89 84.09 200.61 97.33 200.61C110.57 200.61 121.31 204.88 121.31 210.16Z" fill="#CC8B49"/>
<path d="M103.89 204.72C103.89 208.34 100.95 211.28 97.33 211.28C93.71 211.28 90.77 208.34 90.77 204.72V87.1001C90.77 83.4801 93.71 80.54 97.33 80.54C100.95 80.54 103.89 83.4801 103.89 87.1001V204.72Z" fill="#996837"/>
<path d="M100.4 169.58C101.92 171.1 101.92 173.55 100.4 175.07C98.89 176.58 96.43 176.58 94.92 175.07L45.54 125.69C44.03 124.18 44.03 121.72 45.54 120.21C47.05 118.69 49.51 118.69 51.02 120.21L100.4 169.59V169.58Z" fill="#664624"/>
<path d="M135.43 55.2397C135.43 77.4597 117.42 95.4697 95.2 95.4697C72.98 95.4697 54.97 77.4597 54.97 55.2397C54.97 33.0197 72.98 15.0098 95.2 15.0098C117.42 15.0098 135.43 33.0197 135.43 55.2397Z" fill="#FCE5E6"/>
<path d="M82.18 84.4897C82.18 87.6497 82.55 90.7197 83.24 93.6697C87.02 94.8397 91.03 95.4697 95.19 95.4697C117.41 95.4697 135.42 77.4597 135.42 55.2397C135.42 52.0797 135.05 49.0098 134.36 46.0698C130.58 44.8998 126.57 44.2598 122.41 44.2598C100.19 44.2598 82.18 62.2697 82.18 84.4897Z" fill="#F5999B"/>
<path d="M64.88 37.75C62.79 37.75 60.74 37.91 58.74 38.22C56.32 43.39 54.96 49.16 54.96 55.24C54.96 77.46 72.97 95.47 95.19 95.47C97.28 95.47 99.33 95.31 101.33 95.01C103.75 89.84 105.11 84.07 105.11 77.99C105.11 55.77 87.1 37.76 64.88 37.76V37.75Z" fill="#F27F82"/>
<path d="M72.58 125.56C72.58 138.7 61.93 149.35 48.79 149.35C35.65 149.35 25 138.7 25 125.56C25 112.42 35.65 101.77 48.79 101.77C61.93 101.77 72.58 112.42 72.58 125.56Z" fill="#FCE5E6"/>
<path d="M41.09 142.86C41.09 144.73 41.31 146.54 41.72 148.29C43.95 148.98 46.33 149.36 48.79 149.36C61.93 149.36 72.58 138.71 72.58 125.57C72.58 123.7 72.36 121.89 71.95 120.15C69.72 119.45 67.34 119.08 64.88 119.08C51.74 119.08 41.09 129.73 41.09 142.87V142.86Z" fill="#F5999B"/>
<path d="M30.86 115.22C29.62 115.22 28.41 115.31 27.23 115.5C25.8 118.56 25 121.97 25 125.57C25 138.71 35.65 149.36 48.79 149.36C50.02 149.36 51.24 149.27 52.42 149.08C53.85 146.02 54.65 142.61 54.65 139.01C54.65 125.87 44 115.22 30.86 115.22Z" fill="#F27F82"/>
<g style="mix-blend-mode:multiply" opacity="0.2">
<path d="M95.2 15.01C78.33 15.01 63.89 25.4001 57.92 40.1201C57.89 40.1801 57.87 40.24 57.85 40.3C57.62 40.88 57.4 41.46 57.19 42.05C57.15 42.16 57.11 42.2801 57.07 42.3901C56.89 42.9301 56.72 43.48 56.56 44.03C56.51 44.18 56.47 44.34 56.43 44.49C56.29 45 56.16 45.52 56.04 46.04C56 46.23 55.95 46.4201 55.91 46.6101C55.8 47.1001 55.71 47.6001 55.62 48.1001C55.58 48.3101 55.54 48.53 55.5 48.74C55.42 49.23 55.36 49.72 55.29 50.21C55.26 50.44 55.23 50.6601 55.2 50.8901C55.15 51.4001 55.11 51.9099 55.07 52.4299C55.06 52.6399 55.03 52.84 55.02 53.05C54.98 53.7701 54.96 54.5 54.96 55.23C54.96 73.29 66.86 88.5702 83.24 93.6602C83.81 93.8402 84.39 94.0001 84.97 94.1501C85.12 94.1901 85.27 94.23 85.43 94.26C85.88 94.37 86.34 94.4801 86.79 94.5701C86.95 94.6001 87.11 94.6399 87.27 94.6699C88.42 94.8999 89.59 95.08 90.77 95.21V159.93L68.97 138.13C71.25 134.48 72.58 130.17 72.58 125.54C72.58 125.09 72.56 124.65 72.54 124.21C72.54 124.12 72.53 124.03 72.52 123.95C72.5 123.58 72.46 123.22 72.42 122.85C72.42 122.79 72.4 122.73 72.4 122.66C72.35 122.26 72.29 121.87 72.22 121.47C72.22 121.45 72.22 121.42 72.21 121.4C70.25 110.24 60.51 101.75 48.79 101.75C38.81 101.75 30.27 107.9 26.74 116.61C26.73 116.64 26.72 116.67 26.7 116.7C26.56 117.05 26.43 117.4 26.31 117.76C26.29 117.82 26.27 117.88 26.25 117.94C26.14 118.27 26.04 118.6 25.94 118.93C25.92 119.02 25.89 119.1 25.87 119.18C25.78 119.49 25.71 119.8 25.63 120.12C25.61 120.23 25.58 120.33 25.56 120.44C25.5 120.73 25.44 121.04 25.38 121.34C25.36 121.46 25.34 121.58 25.32 121.71C25.27 122 25.23 122.29 25.2 122.59C25.18 122.72 25.16 122.85 25.15 122.98C25.12 123.28 25.09 123.59 25.07 123.89C25.07 124.01 25.05 124.13 25.04 124.26C25.02 124.69 25 125.12 25 125.55C25 136.78 32.78 146.18 43.25 148.68C43.37 148.71 43.49 148.74 43.61 148.76C44.64 148.99 45.69 149.15 46.77 149.24C46.9 149.24 47.03 149.26 47.17 149.27C47.71 149.31 48.25 149.33 48.8 149.33C49.35 149.33 49.9 149.3 50.44 149.27C50.57 149.27 50.7 149.25 50.83 149.24C55.75 148.82 60.25 146.92 63.86 143.96L90.8 170.9V204.7C90.8 208.32 93.74 211.26 97.36 211.26L95.22 15L95.2 15.01Z" fill="#F27F82"/>
</g>
</svg>
