<svg width="160" height="220" viewBox="0 0 160 220" fill="none" xmlns="http://www.w3.org/2000/svg">
<path d="M79.79 219.79C93.0338 219.79 103.77 215.514 103.77 210.24C103.77 204.966 93.0338 200.69 79.79 200.69C66.5462 200.69 55.81 204.966 55.81 210.24C55.81 215.514 66.5462 219.79 79.79 219.79Z" fill="#CC8B49"/>
<path d="M86.35 204.8C86.35 208.42 83.42 211.36 79.79 211.36C76.17 211.36 73.23 208.42 73.23 204.8V57.4702C73.23 53.8502 76.17 50.9102 79.79 50.9102C83.41 50.9102 86.35 53.8502 86.35 57.4702V204.8Z" fill="#996837"/>
<path d="M86.35 159.23V57.4598C86.35 53.8398 83.42 50.8999 79.79 50.8999C76.16 50.8999 73.23 53.8398 73.23 57.4598V159.23H86.35Z" fill="#664624"/>
<path d="M51.1 150.94C31.17 150.94 15.01 134.78 15.01 114.85C15.01 94.9197 31.17 78.7598 51.1 78.7598H108.49C128.42 78.7598 144.58 94.9197 144.58 114.85C144.58 134.78 128.42 150.94 108.49 150.94H51.1Z" fill="#FCE5E6"/>
<path d="M121.7 148.43C120.76 134.7 111.98 122.12 98.24 117.03L44.43 97.0798C36.16 94.0098 27.48 94.1798 19.77 96.9298C16.74 102.21 15 108.33 15 114.85C15 134.78 31.16 150.94 51.09 150.94H108.48C113.14 150.94 117.6 150.04 121.69 148.43H121.7Z" fill="#F5999B"/>
<path d="M144.02 108.57C136.75 105.84 128.56 105.42 120.58 107.92L65.82 125.07C53.74 128.85 45.07 138.4 41.87 149.74C44.82 150.52 47.91 150.94 51.09 150.94H108.48C128.41 150.94 144.57 134.78 144.57 114.85C144.57 112.71 144.37 110.61 144.02 108.57Z" fill="#F27F82"/>
<path d="M60.25 71.15C46.68 71.15 35.67 60.1499 35.67 46.5699C35.67 32.9999 46.67 22 60.25 22H99.32C112.89 22 123.89 32.9999 123.89 46.5699C123.89 60.1399 112.89 71.15 99.32 71.15H60.25Z" fill="#FCE5E6"/>
<path d="M39.98 32.69C37.27 36.64 35.68 41.42 35.68 46.57C35.68 60.14 46.68 71.15 60.26 71.15H99.33C104.93 71.15 110.08 69.28 114.21 66.13C113.62 56.94 107.87 48.47 98.74 44.85L62.42 30.45C54.73 27.4 46.43 28.51 39.98 32.69Z" fill="#F5999B"/>
<path d="M108.12 37.1802L71.05 49.5203C61.56 52.6803 55.28 61.0702 54.36 70.4302C56.25 70.9002 58.22 71.1503 60.26 71.1503H99.33C112.9 71.1503 123.9 60.1502 123.9 46.5702C123.9 43.0402 123.15 39.6903 121.81 36.6503C117.44 35.5603 112.72 35.6502 108.12 37.1802Z" fill="#F27F82"/>
</svg>
