<svg width="160" height="221" viewBox="0 0 160 221" fill="none" xmlns="http://www.w3.org/2000/svg">
<path d="M104.11 210.92C104.11 216.19 93.37 220.47 80.13 220.47C66.89 220.47 56.15 216.19 56.15 210.92C56.15 205.65 66.89 201.37 80.13 201.37C93.37 201.37 104.11 205.65 104.11 210.92Z" fill="#CC8B49"/>
<path d="M86.69 204.36C86.69 207.98 83.76 210.92 80.13 210.92C76.51 210.92 73.57 207.98 73.57 204.36V86.7397C73.57 83.1197 76.51 80.1797 80.13 80.1797C83.75 80.1797 86.69 83.1197 86.69 86.7397V204.36Z" fill="#996837"/>
<path d="M73.57 88.46V157.18C75.72 156.99 77.91 156.88 80.13 156.88C82.35 156.88 84.53 156.99 86.69 157.18V88.46C84.55 88.16 82.36 88 80.13 88C77.9 88 75.72 88.17 73.57 88.46Z" fill="#664624"/>
<path d="M80.13 149.07C93.3 149.07 105.45 152.59 115.21 158.53C122.64 150.21 127.16 139.25 127.16 127.22C127.16 101.25 106.1 80.1899 80.13 80.1899C54.16 80.1899 33.1 101.25 33.1 127.22C33.1 139.25 37.62 150.21 45.05 158.53C54.81 152.59 66.96 149.07 80.13 149.07Z" fill="#FFAE5B"/>
<path d="M80.13 101.07C96.97 101.07 112.5 105.57 124.99 113.16C134.48 102.53 140.26 88.5099 140.26 73.1299C140.26 39.9199 113.34 13 80.13 13C46.92 13 20 39.9199 20 73.1299C20 88.5099 25.78 102.53 35.27 113.16C47.75 105.57 63.29 101.07 80.13 101.07Z" fill="#FFBE7C"/>
</svg>
