<svg width="160" height="220" viewBox="0 0 160 220" fill="none" xmlns="http://www.w3.org/2000/svg">
<path d="M108.31 210.15C108.31 215.42 97.57 219.7 84.33 219.7C71.09 219.7 60.35 215.42 60.35 210.15C60.35 204.88 71.09 200.6 84.33 200.6C97.57 200.6 108.31 204.87 108.31 210.15Z" fill="#CC8B49"/>
<path d="M90.89 204.71C90.89 208.33 87.95 211.27 84.33 211.27C80.71 211.27 77.77 208.33 77.77 204.71V87.0903C77.77 83.4703 80.71 80.5303 84.33 80.5303C87.95 80.5303 90.89 83.4703 90.89 87.0903V204.71Z" fill="#996837"/>
<path d="M87.4 169.57C88.92 171.09 88.92 173.54 87.4 175.06C85.89 176.57 83.43 176.57 81.92 175.06L32.54 125.68C31.03 124.17 31.03 121.71 32.54 120.2C34.05 118.68 36.51 118.68 38.02 120.2L87.4 169.58V169.57Z" fill="#664624"/>
<path d="M83.2 148.31C81.68 149.83 81.68 152.28 83.2 153.79C84.71 155.3 87.17 155.3 88.68 153.79L129.45 113.02C130.97 111.51 130.97 109.05 129.45 107.54C127.94 106.02 125.48 106.02 123.97 107.54L83.2 148.31Z" fill="#664624"/>
<path d="M122.42 55.23C122.42 77.45 104.41 95.46 82.19 95.46C59.97 95.46 41.96 77.45 41.96 55.23C41.96 33.01 59.97 15 82.19 15C104.41 15 122.42 33.01 122.42 55.23Z" fill="#B3E5E0"/>
<path d="M69.18 84.48C69.18 87.64 69.55 90.7099 70.24 93.6599C74.02 94.8299 78.03 95.46 82.19 95.46C104.41 95.46 122.42 77.45 122.42 55.23C122.42 52.07 122.05 49.0001 121.36 46.0601C117.58 44.8901 113.57 44.25 109.41 44.25C87.19 44.25 69.18 62.26 69.18 84.48Z" fill="#80D4CC"/>
<path d="M51.88 37.7402C49.79 37.7402 47.74 37.9002 45.74 38.2102C43.32 43.3802 41.96 49.1502 41.96 55.2302C41.96 77.4502 59.97 95.4602 82.19 95.4602C84.28 95.4602 86.33 95.3002 88.33 95.0002C90.75 89.8302 92.11 84.0602 92.11 77.9802C92.11 55.7602 74.1 37.7502 51.88 37.7502V37.7402Z" fill="#66AAA3"/>
<path d="M59.58 125.55C59.58 138.69 48.93 149.34 35.79 149.34C22.65 149.34 12 138.69 12 125.55C12 112.41 22.65 101.76 35.79 101.76C48.93 101.76 59.58 112.41 59.58 125.55Z" fill="#B3E5E0"/>
<path d="M28.09 142.85C28.09 144.72 28.31 146.53 28.72 148.28C30.95 148.97 33.33 149.35 35.79 149.35C48.93 149.35 59.58 138.7 59.58 125.56C59.58 123.69 59.36 121.88 58.95 120.14C56.72 119.44 54.34 119.07 51.88 119.07C38.74 119.07 28.09 129.72 28.09 142.86V142.85Z" fill="#80D4CC"/>
<path d="M17.86 115.21C16.62 115.21 15.41 115.3 14.23 115.49C12.8 118.55 12 121.96 12 125.56C12 138.7 22.65 149.35 35.79 149.35C37.02 149.35 38.24 149.26 39.42 149.07C40.85 146.01 41.65 142.6 41.65 139C41.65 125.86 31 115.21 17.86 115.21Z" fill="#66AAA3"/>
<path d="M147 115.23C147 128.37 136.35 139.02 123.21 139.02C110.07 139.02 99.42 128.37 99.42 115.23C99.42 102.09 110.07 91.4399 123.21 91.4399C136.35 91.4399 147 102.09 147 115.23Z" fill="#B3E5E0"/>
<path d="M115.51 132.53C115.51 134.4 115.73 136.21 116.14 137.95C118.37 138.65 120.75 139.02 123.21 139.02C136.35 139.02 147 128.37 147 115.23C147 113.36 146.78 111.55 146.37 109.81C144.14 109.12 141.77 108.74 139.3 108.74C126.16 108.74 115.51 119.39 115.51 132.53Z" fill="#80D4CC"/>
<path d="M105.28 104.89C104.05 104.89 102.83 104.98 101.65 105.17C100.22 108.23 99.41 111.64 99.41 115.24C99.41 128.38 110.06 139.03 123.2 139.03C124.43 139.03 125.65 138.93 126.83 138.75C128.26 135.69 129.06 132.28 129.06 128.69C129.06 115.55 118.41 104.9 105.27 104.9L105.28 104.89Z" fill="#66AAA3"/>
</svg>
